<svg width="245" height="80" viewBox="0 0 245 80" fill="none" xmlns="http://www.w3.org/2000/svg">
<path d="M4 54.8004C5.44051 62.3185 18.9436 60.6241 34.3321 57.6919C51.1624 54.2661 71.8367 49.3577 90.4724 49.7572C112.333 49.9943 126.265 60.0873 127.223 59.0919C157.669 52.543 191.122 50.8491 221.704 58.0601" stroke="white" stroke-width="2" stroke-linecap="round"/>
<path d="M44.5622 40H39.1862L38.7702 29.952C38.7062 27.968 38.6316 26.464 38.5462 25.44H38.4502C38.1942 26.2507 37.8956 27.5093 37.5542 29.216L37.3942 30.016L35.1862 40H29.8102L27.9542 31.008L27.6342 29.408C27.1862 27.424 26.8769 26.1013 26.7062 25.44H26.6102C26.5249 26.5067 26.4502 28.2453 26.3862 30.656C26.3649 30.8053 26.3542 31.04 26.3542 31.36L26.0662 40H20.6582L21.4262 21.76H30.5782L32.1462 29.632L32.5302 31.744C32.7009 31.0827 32.8609 30.3467 33.0102 29.536L34.4822 21.76H43.8262L44.5622 40ZM59.866 36H54.554L53.594 40H47.706L53.594 21.76H61.114L66.746 40H60.826L59.866 36ZM57.178 25.696L55.29 32.448H59.098L57.306 25.696H57.178ZM86.8652 40H80.8172L79.7292 35.392C79.6866 35.2213 79.6119 34.9333 79.5052 34.528C79.4199 34.1013 79.3132 33.792 79.1852 33.6C79.0572 33.3867 78.8759 33.248 78.6412 33.184C78.0439 33.2053 77.1692 33.216 76.0172 33.216V40H70.2572V21.92C72.8386 21.728 75.2492 21.632 77.4892 21.632C79.5159 21.632 81.1586 21.8027 82.4172 22.144C83.6759 22.464 84.6146 23.0293 85.2332 23.84C85.8732 24.6293 86.1932 25.7173 86.1932 27.104C86.1932 28.4053 85.8946 29.4293 85.2972 30.176C84.6999 30.9013 83.7399 31.3387 82.4172 31.488V31.68C83.1639 31.744 83.7826 31.9893 84.2732 32.416C84.7852 32.8213 85.1266 33.344 85.2972 33.984L86.8652 40ZM76.0172 29.6C76.2092 29.6213 76.5826 29.632 77.1372 29.632C78.7799 29.632 79.7399 29.4933 80.0172 29.216C80.2732 28.96 80.4012 28.3627 80.4012 27.424C80.4012 26.5493 80.1666 25.952 79.6972 25.632C79.2492 25.312 78.5026 25.152 77.4572 25.152C77.2226 25.152 76.7426 25.1733 76.0172 25.216V29.6ZM90.7717 21.76H96.5317V40H90.7717V21.76ZM112.251 36H106.939L105.979 40H100.091L105.979 21.76H113.499L119.131 40H113.211L112.251 36ZM109.563 25.696L107.675 32.448H111.483L109.691 25.696H109.563ZM138.271 40.416C135.092 40.416 132.703 39.6693 131.103 38.176C129.524 36.6613 128.735 34.24 128.735 30.912C128.735 27.648 129.609 25.2693 131.359 23.776C133.108 22.2827 135.423 21.536 138.303 21.536C144.361 21.536 147.391 24.5547 147.391 30.592C147.391 33.6427 146.644 36.0427 145.151 37.792C143.679 39.5413 141.385 40.416 138.271 40.416ZM138.143 36.64C138.74 36.64 139.241 36.544 139.647 36.352C140.052 36.1387 140.372 35.776 140.607 35.264C141.055 34.3893 141.279 32.96 141.279 30.976C141.279 29.0347 141.055 27.6267 140.607 26.752C140.159 25.856 139.337 25.3867 138.143 25.344C137.695 25.344 137.225 25.3973 136.735 25.504C136.265 25.5893 135.967 25.7173 135.839 25.888C135.583 26.1867 135.38 26.8267 135.231 27.808C135.103 28.768 135.039 29.824 135.039 30.976C135.039 32.768 135.209 34.08 135.551 34.912C135.785 35.5307 136.116 35.9787 136.543 36.256C136.969 36.512 137.503 36.64 138.143 36.64ZM168.465 40H162.417L161.329 35.392C161.287 35.2213 161.212 34.9333 161.105 34.528C161.02 34.1013 160.913 33.792 160.785 33.6C160.657 33.3867 160.476 33.248 160.241 33.184C159.644 33.2053 158.769 33.216 157.617 33.216V40H151.857V21.92C154.439 21.728 156.849 21.632 159.089 21.632C161.116 21.632 162.759 21.8027 164.017 22.144C165.276 22.464 166.215 23.0293 166.833 23.84C167.473 24.6293 167.793 25.7173 167.793 27.104C167.793 28.4053 167.495 29.4293 166.897 30.176C166.3 30.9013 165.34 31.3387 164.017 31.488V31.68C164.764 31.744 165.383 31.9893 165.873 32.416C166.385 32.8213 166.727 33.344 166.897 33.984L168.465 40ZM157.617 29.6C157.809 29.6213 158.183 29.632 158.737 29.632C160.38 29.632 161.34 29.4933 161.617 29.216C161.873 28.96 162.001 28.3627 162.001 27.424C162.001 26.5493 161.767 25.952 161.297 25.632C160.849 25.312 160.103 25.152 159.057 25.152C158.823 25.152 158.343 25.1733 157.617 25.216V29.6ZM181.908 40H176.148V25.76H170.996V21.76H187.06V25.76H181.908V40ZM190.854 21.76H196.614V40H190.854V21.76ZM215.821 36.512V40H201.037V36.352L209.709 25.28H201.293V21.76H215.565V25.44L207.021 36.512H215.821Z" fill="white"/>
<path d="M230.245 60.375C230.245 60.2917 230.245 60.125 230.245 59.875C230.266 59.6042 230.277 59.4271 230.277 59.3438C230.943 57.8229 231.797 56.4167 232.839 55.125C233.881 53.8333 235.058 52.6875 236.37 51.6875C236.412 51.6875 236.475 51.6771 236.558 51.6562C236.662 51.6146 236.735 51.5938 236.777 51.5938C237.339 51.5938 237.797 51.7188 238.152 51.9688C238.527 52.1979 238.818 52.5104 239.027 52.9062C239.256 53.2812 239.412 53.7083 239.495 54.1875C239.579 54.6458 239.62 55.0938 239.62 55.5312C239.62 56.3438 239.433 57.1979 239.058 58.0938C238.683 58.9688 238.172 59.7812 237.527 60.5312C236.902 61.2604 236.183 61.8646 235.37 62.3438C234.558 62.8021 233.714 63.0312 232.839 63.0312C231.964 63.0312 231.308 62.8021 230.87 62.3438C230.454 61.8646 230.245 61.2083 230.245 60.375ZM232.683 60C232.683 60.2292 232.777 60.3854 232.964 60.4688C233.152 60.5521 233.339 60.5938 233.527 60.5938C234.047 60.5938 234.547 60.4583 235.027 60.1875C235.527 59.8958 235.964 59.5417 236.339 59.125C236.735 58.6875 237.047 58.2083 237.277 57.6875C237.506 57.1667 237.62 56.6667 237.62 56.1875C237.62 55.9583 237.6 55.7083 237.558 55.4375C237.537 55.1458 237.475 54.8958 237.37 54.6875C237.266 54.4583 237.1 54.2812 236.87 54.1562C236.662 54.0312 236.36 54.0104 235.964 54.0938C235.672 54.1562 235.339 54.4271 234.964 54.9062C234.589 55.3854 234.225 55.9479 233.87 56.5938C233.537 57.2188 233.256 57.8542 233.027 58.5C232.797 59.125 232.683 59.625 232.683 60Z" fill="white"/>
</svg>
