<svg width="313" height="251" viewBox="0 0 313 251" fill="none" xmlns="http://www.w3.org/2000/svg">
<g filter="url(#filter0_d_1319_523)">
<ellipse cx="217.017" cy="94.124" rx="78.7364" ry="77.124" fill="#FD83E5"/>
</g>
<g opacity="0.8" filter="url(#filter1_d_1319_523)">
<ellipse cx="105.736" cy="94.124" rx="78.7364" ry="77.124" fill="#FFFF5C"/>
</g>
<g filter="url(#filter2_d_1319_523)">
<ellipse cx="163.477" cy="165.078" rx="78.7364" ry="77.124" fill="#F2DDD3"/>
</g>
<path d="M160.936 88.6042C154 88.6041 140.712 90.477 138.35 91.9533C137.35 99.4533 140.312 112.075 142.073 117.805C146.935 133.63 159.829 148.087 161.361 148.087C162.893 148.087 174.827 135.4 180.889 117.805C184.439 105.723 185.459 91.619 184.234 90.6899C183.01 89.7608 173.104 88.6045 160.936 88.6042Z" fill="white" stroke="black" stroke-opacity="0.25" stroke-width="2"/>
<mask id="path-5-outside-1_1319_523" maskUnits="userSpaceOnUse" x="152.125" y="105.59" width="19" height="13" fill="black">
<rect fill="white" x="152.125" y="105.59" width="19" height="13"/>
<path d="M157.217 116.702C156.498 116.702 155.863 116.562 155.313 116.282C154.771 116.002 154.347 115.61 154.039 115.106C153.74 114.593 153.591 114.005 153.591 113.342V106.958C153.591 106.912 153.605 106.874 153.633 106.846C153.67 106.809 153.712 106.79 153.759 106.79H155.397C155.443 106.79 155.481 106.809 155.509 106.846C155.546 106.874 155.565 106.912 155.565 106.958V113.356C155.565 113.851 155.714 114.252 156.013 114.56C156.321 114.859 156.722 115.008 157.217 115.008C157.711 115.008 158.108 114.859 158.407 114.56C158.715 114.252 158.869 113.851 158.869 113.356V106.958C158.869 106.912 158.883 106.874 158.911 106.846C158.948 106.809 158.99 106.79 159.037 106.79H160.675C160.721 106.79 160.759 106.809 160.787 106.846C160.824 106.874 160.843 106.912 160.843 106.958V113.342C160.843 114.005 160.689 114.593 160.381 115.106C160.082 115.61 159.657 116.002 159.107 116.282C158.565 116.562 157.935 116.702 157.217 116.702ZM162.185 116.59C162.12 116.59 162.073 116.572 162.045 116.534C162.017 116.497 162.022 116.45 162.059 116.394L164.775 111.732C164.794 111.704 164.794 111.676 164.775 111.648L162.059 106.986L162.031 106.902C162.031 106.828 162.083 106.79 162.185 106.79H163.963C164.057 106.79 164.127 106.828 164.173 106.902L165.993 110.108C166.021 110.164 166.049 110.164 166.077 110.108L167.897 106.902C167.944 106.828 168.014 106.79 168.107 106.79H169.871C169.937 106.79 169.983 106.809 170.011 106.846C170.039 106.884 170.035 106.93 169.997 106.986L167.281 111.648C167.272 111.676 167.272 111.704 167.281 111.732L169.997 116.394L170.025 116.478C170.025 116.553 169.974 116.59 169.871 116.59H168.107C168.014 116.59 167.944 116.553 167.897 116.478L166.077 113.286C166.049 113.23 166.021 113.23 165.993 113.286L164.159 116.478C164.113 116.553 164.043 116.59 163.949 116.59H162.185Z"/>
</mask>
<path d="M157.217 116.702C156.498 116.702 155.863 116.562 155.313 116.282C154.771 116.002 154.347 115.61 154.039 115.106C153.74 114.593 153.591 114.005 153.591 113.342V106.958C153.591 106.912 153.605 106.874 153.633 106.846C153.67 106.809 153.712 106.79 153.759 106.79H155.397C155.443 106.79 155.481 106.809 155.509 106.846C155.546 106.874 155.565 106.912 155.565 106.958V113.356C155.565 113.851 155.714 114.252 156.013 114.56C156.321 114.859 156.722 115.008 157.217 115.008C157.711 115.008 158.108 114.859 158.407 114.56C158.715 114.252 158.869 113.851 158.869 113.356V106.958C158.869 106.912 158.883 106.874 158.911 106.846C158.948 106.809 158.99 106.79 159.037 106.79H160.675C160.721 106.79 160.759 106.809 160.787 106.846C160.824 106.874 160.843 106.912 160.843 106.958V113.342C160.843 114.005 160.689 114.593 160.381 115.106C160.082 115.61 159.657 116.002 159.107 116.282C158.565 116.562 157.935 116.702 157.217 116.702ZM162.185 116.59C162.12 116.59 162.073 116.572 162.045 116.534C162.017 116.497 162.022 116.45 162.059 116.394L164.775 111.732C164.794 111.704 164.794 111.676 164.775 111.648L162.059 106.986L162.031 106.902C162.031 106.828 162.083 106.79 162.185 106.79H163.963C164.057 106.79 164.127 106.828 164.173 106.902L165.993 110.108C166.021 110.164 166.049 110.164 166.077 110.108L167.897 106.902C167.944 106.828 168.014 106.79 168.107 106.79H169.871C169.937 106.79 169.983 106.809 170.011 106.846C170.039 106.884 170.035 106.93 169.997 106.986L167.281 111.648C167.272 111.676 167.272 111.704 167.281 111.732L169.997 116.394L170.025 116.478C170.025 116.553 169.974 116.59 169.871 116.59H168.107C168.014 116.59 167.944 116.553 167.897 116.478L166.077 113.286C166.049 113.23 166.021 113.23 165.993 113.286L164.159 116.478C164.113 116.553 164.043 116.59 163.949 116.59H162.185Z" fill="white"/>
<path d="M155.313 116.282L154.853 117.171L154.86 117.174L155.313 116.282ZM154.039 115.106L153.174 115.609L153.18 115.619L153.185 115.628L154.039 115.106ZM153.633 106.846L152.926 106.139L152.926 106.139L153.633 106.846ZM155.509 106.846L154.709 107.446L154.794 107.561L154.909 107.646L155.509 106.846ZM156.013 114.56L155.295 115.256L155.306 115.268L155.317 115.278L156.013 114.56ZM158.407 114.56L157.7 113.853L157.7 113.853L158.407 114.56ZM158.911 106.846L158.204 106.139L158.204 106.139L158.911 106.846ZM160.787 106.846L159.987 107.446L160.072 107.561L160.187 107.646L160.787 106.846ZM160.381 115.106L159.523 114.592L159.52 114.597L160.381 115.106ZM159.107 116.282L158.654 115.391L158.647 115.394L159.107 116.282ZM157.217 115.702C156.63 115.702 156.155 115.589 155.766 115.391L154.86 117.174C155.572 117.536 156.366 117.702 157.217 117.702V115.702ZM155.772 115.394C155.388 115.195 155.102 114.928 154.892 114.585L153.185 115.628C153.592 116.293 154.155 116.809 154.853 117.171L155.772 115.394ZM154.903 114.603C154.703 114.26 154.591 113.849 154.591 113.342H152.591C152.591 114.161 152.777 114.926 153.174 115.609L154.903 114.603ZM154.591 113.342V106.958H152.591V113.342H154.591ZM154.591 106.958C154.591 107.035 154.579 107.135 154.538 107.246C154.495 107.36 154.428 107.466 154.34 107.553L152.926 106.139C152.677 106.388 152.591 106.697 152.591 106.958H154.591ZM154.34 107.553C154.284 107.609 154.205 107.671 154.098 107.718C153.99 107.767 153.873 107.79 153.759 107.79V105.79C153.411 105.79 153.124 105.941 152.926 106.139L154.34 107.553ZM153.759 107.79H155.397V105.79H153.759V107.79ZM155.397 107.79C155.283 107.79 155.148 107.767 155.013 107.699C154.877 107.631 154.777 107.537 154.709 107.446L156.309 106.246C156.092 105.957 155.758 105.79 155.397 105.79V107.79ZM154.909 107.646C154.818 107.578 154.724 107.478 154.656 107.343C154.588 107.207 154.565 107.072 154.565 106.958H156.565C156.565 106.597 156.398 106.263 156.109 106.046L154.909 107.646ZM154.565 106.958V113.356H156.565V106.958H154.565ZM154.565 113.356C154.565 114.068 154.787 114.733 155.295 115.256L156.731 113.864C156.641 113.771 156.565 113.634 156.565 113.356H154.565ZM155.317 115.278C155.84 115.786 156.505 116.008 157.217 116.008V114.008C156.939 114.008 156.802 113.932 156.709 113.842L155.317 115.278ZM157.217 116.008C157.928 116.008 158.596 115.786 159.114 115.267L157.7 113.853C157.621 113.932 157.495 114.008 157.217 114.008V116.008ZM159.114 115.267C159.635 114.746 159.869 114.077 159.869 113.356H157.869C157.869 113.625 157.794 113.759 157.7 113.853L159.114 115.267ZM159.869 113.356V106.958H157.869V113.356H159.869ZM159.869 106.958C159.869 107.035 159.857 107.135 159.816 107.246C159.773 107.36 159.706 107.466 159.618 107.553L158.204 106.139C157.955 106.388 157.869 106.697 157.869 106.958H159.869ZM159.618 107.553C159.562 107.609 159.483 107.671 159.376 107.718C159.268 107.767 159.151 107.79 159.037 107.79V105.79C158.689 105.79 158.402 105.941 158.204 106.139L159.618 107.553ZM159.037 107.79H160.675V105.79H159.037V107.79ZM160.675 107.79C160.561 107.79 160.426 107.767 160.291 107.699C160.155 107.631 160.055 107.537 159.987 107.446L161.587 106.246C161.37 105.957 161.036 105.79 160.675 105.79V107.79ZM160.187 107.646C160.096 107.578 160.002 107.478 159.934 107.343C159.866 107.207 159.843 107.072 159.843 106.958H161.843C161.843 106.597 161.676 106.263 161.387 106.046L160.187 107.646ZM159.843 106.958V113.342H161.843V106.958H159.843ZM159.843 113.342C159.843 113.844 159.728 114.25 159.523 114.592L161.238 115.621C161.649 114.936 161.843 114.166 161.843 113.342H159.843ZM159.52 114.597C159.324 114.928 159.045 115.192 158.654 115.391L159.56 117.174C160.27 116.813 160.84 116.292 161.241 115.616L159.52 114.597ZM158.647 115.394C158.271 115.589 157.804 115.702 157.217 115.702V117.702C158.067 117.702 158.859 117.536 159.566 117.171L158.647 115.394ZM162.059 116.394L162.892 116.949L162.908 116.924L162.924 116.898L162.059 116.394ZM164.775 111.732L163.943 111.178L163.927 111.203L163.911 111.229L164.775 111.732ZM164.775 111.648L163.911 112.152L163.927 112.178L163.943 112.203L164.775 111.648ZM162.059 106.986L161.111 107.303L161.143 107.401L161.195 107.49L162.059 106.986ZM162.031 106.902H161.031V107.065L161.083 107.219L162.031 106.902ZM164.173 106.902L165.043 106.409L165.033 106.39L165.021 106.372L164.173 106.902ZM165.993 110.108L166.888 109.661L166.876 109.638L166.863 109.615L165.993 110.108ZM166.077 110.108L165.208 109.615L165.195 109.638L165.183 109.661L166.077 110.108ZM167.897 106.902L167.049 106.372L167.038 106.39L167.028 106.409L167.897 106.902ZM169.997 106.986L169.165 106.432L169.149 106.457L169.133 106.483L169.997 106.986ZM167.281 111.648L166.417 111.145L166.365 111.234L166.333 111.332L167.281 111.648ZM167.281 111.732L166.333 112.049L166.365 112.147L166.417 112.236L167.281 111.732ZM169.997 116.394L170.946 116.078L170.913 115.98L170.862 115.891L169.997 116.394ZM170.025 116.478H171.025V116.316L170.974 116.162L170.025 116.478ZM167.897 116.478L167.029 116.974L167.039 116.991L167.049 117.008L167.897 116.478ZM166.077 113.286L165.183 113.734L165.195 113.758L165.209 113.782L166.077 113.286ZM165.993 113.286L166.861 113.785L166.875 113.759L166.888 113.734L165.993 113.286ZM164.159 116.478L165.007 117.008L165.017 116.993L165.027 116.977L164.159 116.478ZM162.185 115.59C162.301 115.59 162.616 115.629 162.845 115.934L161.245 117.134C161.53 117.514 161.939 117.59 162.185 117.59V115.59ZM162.845 115.934C162.983 116.117 163.045 116.346 163.023 116.571C163.004 116.766 162.927 116.896 162.892 116.949L161.227 115.84C161.155 115.948 161.057 116.13 161.033 116.372C161.006 116.643 161.08 116.914 161.245 117.134L162.845 115.934ZM162.924 116.898L165.64 112.236L163.911 111.229L161.195 115.891L162.924 116.898ZM165.608 112.287C165.704 112.142 165.789 111.939 165.789 111.69C165.789 111.442 165.704 111.238 165.607 111.094L163.943 112.203C163.866 112.086 163.789 111.911 163.789 111.69C163.789 111.47 163.866 111.294 163.943 111.178L165.608 112.287ZM165.64 111.145L162.924 106.483L161.195 107.49L163.911 112.152L165.64 111.145ZM163.008 106.67L162.98 106.586L161.083 107.219L161.111 107.303L163.008 106.67ZM163.031 106.902C163.031 107.121 162.939 107.423 162.658 107.627C162.436 107.788 162.226 107.79 162.185 107.79V105.79C162.043 105.79 161.755 105.811 161.482 106.01C161.15 106.251 161.031 106.609 161.031 106.902H163.031ZM162.185 107.79H163.963V105.79H162.185V107.79ZM163.963 107.79C163.875 107.79 163.749 107.772 163.615 107.701C163.479 107.628 163.384 107.527 163.325 107.432L165.021 106.372C164.779 105.985 164.377 105.79 163.963 105.79V107.79ZM163.304 107.396L165.124 110.602L166.863 109.615L165.043 106.409L163.304 107.396ZM165.099 110.556C165.13 110.617 165.193 110.733 165.307 110.847C165.423 110.963 165.67 111.15 166.035 111.15C166.401 111.15 166.648 110.963 166.764 110.847C166.878 110.733 166.941 110.617 166.972 110.556L165.183 109.661C165.2 109.628 165.249 109.533 165.349 109.433C165.451 109.331 165.684 109.15 166.035 109.15C166.387 109.15 166.62 109.331 166.722 109.433C166.822 109.533 166.871 109.628 166.888 109.661L165.099 110.556ZM166.947 110.602L168.767 107.396L167.028 106.409L165.208 109.615L166.947 110.602ZM168.745 107.432C168.686 107.527 168.592 107.628 168.456 107.701C168.322 107.772 168.196 107.79 168.107 107.79V105.79C167.694 105.79 167.292 105.985 167.049 106.372L168.745 107.432ZM168.107 107.79H169.871V105.79H168.107V107.79ZM169.871 107.79C169.756 107.79 169.44 107.752 169.211 107.446L170.811 106.246C170.526 105.866 170.117 105.79 169.871 105.79V107.79ZM169.211 107.446C169.074 107.263 169.011 107.034 169.034 106.81C169.053 106.615 169.13 106.484 169.165 106.432L170.83 107.541C170.902 107.432 171 107.25 171.024 107.009C171.051 106.738 170.977 106.467 170.811 106.246L169.211 107.446ZM169.133 106.483L166.417 111.145L168.146 112.152L170.862 107.49L169.133 106.483ZM166.333 111.332C166.255 111.565 166.255 111.815 166.333 112.049L168.23 111.416C168.289 111.593 168.289 111.787 168.23 111.965L166.333 111.332ZM166.417 112.236L169.133 116.898L170.862 115.891L168.146 111.229L166.417 112.236ZM169.049 116.711L169.077 116.795L170.974 116.162L170.946 116.078L169.049 116.711ZM169.025 116.478C169.025 116.26 169.118 115.958 169.399 115.754C169.621 115.592 169.831 115.59 169.871 115.59V117.59C170.014 117.59 170.302 117.57 170.575 117.371C170.907 117.129 171.025 116.771 171.025 116.478H169.025ZM169.871 115.59H168.107V117.59H169.871V115.59ZM168.107 115.59C168.196 115.59 168.322 115.609 168.456 115.68C168.592 115.753 168.686 115.854 168.745 115.948L167.049 117.008C167.292 117.396 167.694 117.59 168.107 117.59V115.59ZM168.766 115.983L166.946 112.791L165.209 113.782L167.029 116.974L168.766 115.983ZM166.972 112.839C166.941 112.778 166.878 112.662 166.764 112.548C166.648 112.432 166.401 112.244 166.035 112.244C165.67 112.244 165.423 112.432 165.307 112.548C165.193 112.662 165.13 112.778 165.099 112.839L166.888 113.734C166.871 113.767 166.822 113.862 166.722 113.962C166.62 114.064 166.387 114.244 166.035 114.244C165.684 114.244 165.451 114.064 165.349 113.962C165.249 113.862 165.2 113.767 165.183 113.734L166.972 112.839ZM165.126 112.788L163.292 115.98L165.027 116.977L166.861 113.785L165.126 112.788ZM163.311 115.948C163.37 115.854 163.465 115.753 163.601 115.68C163.735 115.609 163.861 115.59 163.949 115.59V117.59C164.363 117.59 164.765 117.396 165.007 117.008L163.311 115.948ZM163.949 115.59H162.185V117.59H163.949V115.59Z" fill="black" mask="url(#path-5-outside-1_1319_523)"/>
<path d="M59.6892 71.1988C59.6892 71.2422 59.6719 71.2812 59.6372 71.3158C59.6112 71.3418 59.5765 71.3548 59.5332 71.3548H55.2692C55.2259 71.3548 55.2042 71.3765 55.2042 71.4198V73.4348C55.2042 73.4782 55.2259 73.4998 55.2692 73.4998H58.0642C58.1075 73.4998 58.1422 73.5172 58.1682 73.5518C58.2029 73.5778 58.2202 73.6125 58.2202 73.6558V74.9168C58.2202 74.9602 58.2029 74.9992 58.1682 75.0338C58.1422 75.0598 58.1075 75.0728 58.0642 75.0728H55.2692C55.2259 75.0728 55.2042 75.0945 55.2042 75.1378V77.2438C55.2042 77.2872 55.2259 77.3088 55.2692 77.3088H59.5332C59.5765 77.3088 59.6112 77.3262 59.6372 77.3608C59.6719 77.3868 59.6892 77.4215 59.6892 77.4648V78.7258C59.6892 78.7692 59.6719 78.8082 59.6372 78.8428C59.6112 78.8688 59.5765 78.8818 59.5332 78.8818H53.5272C53.4839 78.8818 53.4449 78.8688 53.4102 78.8428C53.3842 78.8082 53.3712 78.7692 53.3712 78.7258V69.9378C53.3712 69.8945 53.3842 69.8598 53.4102 69.8338C53.4449 69.7992 53.4839 69.7818 53.5272 69.7818H59.5332C59.5765 69.7818 59.6112 69.7992 59.6372 69.8338C59.6719 69.8598 59.6892 69.8945 59.6892 69.9378V71.1988ZM66.189 69.9378C66.189 69.8945 66.202 69.8598 66.228 69.8338C66.2626 69.7992 66.3016 69.7818 66.345 69.7818H67.866C67.9093 69.7818 67.944 69.7992 67.97 69.8338C68.0046 69.8598 68.022 69.8945 68.022 69.9378V78.7258C68.022 78.7692 68.0046 78.8082 67.97 78.8428C67.944 78.8688 67.9093 78.8818 67.866 78.8818H66.397C66.3103 78.8818 66.2496 78.8472 66.215 78.7778L62.848 73.2138C62.8306 73.1878 62.8133 73.1792 62.796 73.1878C62.7786 73.1878 62.77 73.2052 62.77 73.2398L62.796 78.7258C62.796 78.7692 62.7786 78.8082 62.744 78.8428C62.718 78.8688 62.6833 78.8818 62.64 78.8818H61.119C61.0756 78.8818 61.0366 78.8688 61.002 78.8428C60.976 78.8082 60.963 78.7692 60.963 78.7258V69.9378C60.963 69.8945 60.976 69.8598 61.002 69.8338C61.0366 69.7992 61.0756 69.7818 61.119 69.7818H62.588C62.6746 69.7818 62.7353 69.8165 62.77 69.8858L66.124 75.4238C66.1413 75.4498 66.1586 75.4628 66.176 75.4628C66.1933 75.4542 66.202 75.4325 66.202 75.3978L66.189 69.9378ZM75.8875 69.7818C75.9308 69.7818 75.9655 69.7992 75.9915 69.8338C76.0262 69.8598 76.0435 69.8945 76.0435 69.9378V71.2118C76.0435 71.2552 76.0262 71.2942 75.9915 71.3288C75.9655 71.3548 75.9308 71.3678 75.8875 71.3678H73.5605C73.5172 71.3678 73.4955 71.3895 73.4955 71.4328V78.7258C73.4955 78.7692 73.4782 78.8082 73.4435 78.8428C73.4175 78.8688 73.3828 78.8818 73.3395 78.8818H71.8185C71.7752 78.8818 71.7362 78.8688 71.7015 78.8428C71.6755 78.8082 71.6625 78.7692 71.6625 78.7258V71.4328C71.6625 71.3895 71.6408 71.3678 71.5975 71.3678H69.3355C69.2922 71.3678 69.2532 71.3548 69.2185 71.3288C69.1925 71.2942 69.1795 71.2552 69.1795 71.2118V69.9378C69.1795 69.8945 69.1925 69.8598 69.2185 69.8338C69.2532 69.7992 69.2922 69.7818 69.3355 69.7818H75.8875ZM83.531 71.1988C83.531 71.2422 83.5137 71.2812 83.479 71.3158C83.453 71.3418 83.4183 71.3548 83.375 71.3548H79.111C79.0676 71.3548 79.046 71.3765 79.046 71.4198V73.4348C79.046 73.4782 79.0676 73.4998 79.111 73.4998H81.906C81.9493 73.4998 81.984 73.5172 82.01 73.5518C82.0446 73.5778 82.062 73.6125 82.062 73.6558V74.9168C82.062 74.9602 82.0446 74.9992 82.01 75.0338C81.984 75.0598 81.9493 75.0728 81.906 75.0728H79.111C79.0676 75.0728 79.046 75.0945 79.046 75.1378V77.2438C79.046 77.2872 79.0676 77.3088 79.111 77.3088H83.375C83.4183 77.3088 83.453 77.3262 83.479 77.3608C83.5137 77.3868 83.531 77.4215 83.531 77.4648V78.7258C83.531 78.7692 83.5137 78.8082 83.479 78.8428C83.453 78.8688 83.4183 78.8818 83.375 78.8818H77.369C77.3256 78.8818 77.2866 78.8688 77.252 78.8428C77.226 78.8082 77.213 78.7692 77.213 78.7258V69.9378C77.213 69.8945 77.226 69.8598 77.252 69.8338C77.2866 69.7992 77.3256 69.7818 77.369 69.7818H83.375C83.4183 69.7818 83.453 69.7992 83.479 69.8338C83.5137 69.8598 83.531 69.8945 83.531 69.9378V71.1988ZM90.0308 69.9378C90.0308 69.8945 90.0438 69.8598 90.0698 69.8338C90.1044 69.7992 90.1434 69.7818 90.1868 69.7818H91.7078C91.7511 69.7818 91.7858 69.7992 91.8118 69.8338C91.8464 69.8598 91.8638 69.8945 91.8638 69.9378V78.7258C91.8638 78.7692 91.8464 78.8082 91.8118 78.8428C91.7858 78.8688 91.7511 78.8818 91.7078 78.8818H90.2388C90.1521 78.8818 90.0914 78.8472 90.0568 78.7778L86.6898 73.2138C86.6724 73.1878 86.6551 73.1792 86.6378 73.1878C86.6204 73.1878 86.6118 73.2052 86.6118 73.2398L86.6378 78.7258C86.6378 78.7692 86.6204 78.8082 86.5858 78.8428C86.5598 78.8688 86.5251 78.8818 86.4818 78.8818H84.9608C84.9174 78.8818 84.8784 78.8688 84.8438 78.8428C84.8178 78.8082 84.8048 78.7692 84.8048 78.7258V69.9378C84.8048 69.8945 84.8178 69.8598 84.8438 69.8338C84.8784 69.7992 84.9174 69.7818 84.9608 69.7818H86.4298C86.5164 69.7818 86.5771 69.8165 86.6118 69.8858L89.9658 75.4238C89.9831 75.4498 90.0004 75.4628 90.0178 75.4628C90.0351 75.4542 90.0438 75.4325 90.0438 75.3978L90.0308 69.9378ZM93.5301 78.8818C93.4868 78.8818 93.4478 78.8688 93.4131 78.8428C93.3871 78.8082 93.3741 78.7692 93.3741 78.7258V69.9378C93.3741 69.8945 93.3871 69.8598 93.4131 69.8338C93.4478 69.7992 93.4868 69.7818 93.5301 69.7818H96.7801C97.4301 69.7818 97.9978 69.8988 98.4831 70.1328C98.9771 70.3582 99.3584 70.6788 99.6271 71.0948C99.8958 71.5108 100.03 71.9918 100.03 72.5378V76.1258C100.03 76.6718 99.8958 77.1528 99.6271 77.5688C99.3584 77.9848 98.9771 78.3098 98.4831 78.5438C97.9978 78.7692 97.4301 78.8818 96.7801 78.8818H93.5301ZM95.2071 77.2438C95.2071 77.2872 95.2288 77.3088 95.2721 77.3088H96.8451C97.2438 77.3088 97.5644 77.1745 97.8071 76.9058C98.0584 76.6372 98.1884 76.2775 98.1971 75.8268V72.8368C98.1971 72.3862 98.0714 72.0265 97.8201 71.7578C97.5774 71.4892 97.2481 71.3548 96.8321 71.3548H95.2721C95.2288 71.3548 95.2071 71.3765 95.2071 71.4198V77.2438ZM107.728 71.1988C107.728 71.2422 107.711 71.2812 107.676 71.3158C107.65 71.3418 107.616 71.3548 107.572 71.3548H103.308C103.265 71.3548 103.243 71.3765 103.243 71.4198V73.4348C103.243 73.4782 103.265 73.4998 103.308 73.4998H106.103C106.147 73.4998 106.181 73.5172 106.207 73.5518C106.242 73.5778 106.259 73.6125 106.259 73.6558V74.9168C106.259 74.9602 106.242 74.9992 106.207 75.0338C106.181 75.0598 106.147 75.0728 106.103 75.0728H103.308C103.265 75.0728 103.243 75.0945 103.243 75.1378V77.2438C103.243 77.2872 103.265 77.3088 103.308 77.3088H107.572C107.616 77.3088 107.65 77.3262 107.676 77.3608C107.711 77.3868 107.728 77.4215 107.728 77.4648V78.7258C107.728 78.7692 107.711 78.8082 107.676 78.8428C107.65 78.8688 107.616 78.8818 107.572 78.8818H101.566C101.523 78.8818 101.484 78.8688 101.449 78.8428C101.423 78.8082 101.41 78.7692 101.41 78.7258V69.9378C101.41 69.8945 101.423 69.8598 101.449 69.8338C101.484 69.7992 101.523 69.7818 101.566 69.7818H107.572C107.616 69.7818 107.65 69.7992 107.676 69.8338C107.711 69.8598 107.728 69.8945 107.728 69.9378V71.1988ZM113.994 78.8818C113.907 78.8818 113.847 78.8428 113.812 78.7648L112.187 75.1638C112.17 75.1292 112.144 75.1118 112.109 75.1118H110.9C110.857 75.1118 110.835 75.1335 110.835 75.1768V78.7258C110.835 78.7692 110.818 78.8082 110.783 78.8428C110.757 78.8688 110.722 78.8818 110.679 78.8818H109.158C109.115 78.8818 109.076 78.8688 109.041 78.8428C109.015 78.8082 109.002 78.7692 109.002 78.7258V69.9378C109.002 69.8945 109.015 69.8598 109.041 69.8338C109.076 69.7992 109.115 69.7818 109.158 69.7818H112.876C113.431 69.7818 113.916 69.8945 114.332 70.1198C114.757 70.3452 115.082 70.6658 115.307 71.0818C115.541 71.4978 115.658 71.9788 115.658 72.5248C115.658 73.1142 115.511 73.6212 115.216 74.0458C114.921 74.4618 114.51 74.7565 113.981 74.9298C113.938 74.9472 113.925 74.9775 113.942 75.0208L115.71 78.6998C115.727 78.7345 115.736 78.7605 115.736 78.7778C115.736 78.8472 115.688 78.8818 115.593 78.8818H113.994ZM110.9 71.3548C110.857 71.3548 110.835 71.3765 110.835 71.4198V73.6428C110.835 73.6862 110.857 73.7078 110.9 73.7078H112.603C112.967 73.7078 113.262 73.5995 113.487 73.3828C113.721 73.1662 113.838 72.8845 113.838 72.5378C113.838 72.1912 113.721 71.9095 113.487 71.6928C113.262 71.4675 112.967 71.3548 112.603 71.3548H110.9ZM125.375 78.8818C125.288 78.8818 125.232 78.8385 125.206 78.7518L124.816 77.4778C124.799 77.4432 124.777 77.4258 124.751 77.4258H121.553C121.527 77.4258 121.505 77.4432 121.488 77.4778L121.111 78.7518C121.085 78.8385 121.029 78.8818 120.942 78.8818H119.291C119.239 78.8818 119.2 78.8688 119.174 78.8428C119.148 78.8082 119.144 78.7605 119.161 78.6998L121.969 69.9118C121.995 69.8252 122.051 69.7818 122.138 69.7818H124.179C124.266 69.7818 124.322 69.8252 124.348 69.9118L127.156 78.6998C127.165 78.7172 127.169 78.7388 127.169 78.7648C127.169 78.8428 127.121 78.8818 127.026 78.8818H125.375ZM121.956 75.9308C121.947 75.9828 121.965 76.0088 122.008 76.0088H124.296C124.348 76.0088 124.365 75.9828 124.348 75.9308L123.178 72.0698C123.169 72.0352 123.156 72.0222 123.139 72.0308C123.122 72.0308 123.109 72.0438 123.1 72.0698L121.956 75.9308ZM50.5819 94.8818C50.5385 94.8818 50.4995 94.8688 50.4649 94.8428C50.4389 94.8082 50.4259 94.7692 50.4259 94.7258V85.9378C50.4259 85.8945 50.4389 85.8598 50.4649 85.8338C50.4995 85.7992 50.5385 85.7818 50.5819 85.7818H52.1029C52.1462 85.7818 52.1809 85.7992 52.2069 85.8338C52.2415 85.8598 52.2589 85.8945 52.2589 85.9378V93.2438C52.2589 93.2872 52.2805 93.3088 52.3239 93.3088H56.5749C56.6182 93.3088 56.6529 93.3262 56.6789 93.3608C56.7135 93.3868 56.7309 93.4215 56.7309 93.4648V94.7258C56.7309 94.7692 56.7135 94.8082 56.6789 94.8428C56.6529 94.8688 56.6182 94.8818 56.5749 94.8818H50.5819ZM63.8661 94.8818C63.7795 94.8818 63.7231 94.8385 63.6971 94.7518L63.3071 93.4778C63.2898 93.4432 63.2681 93.4258 63.2421 93.4258H60.0441C60.0181 93.4258 59.9965 93.4432 59.9791 93.4778L59.6021 94.7518C59.5761 94.8385 59.5198 94.8818 59.4331 94.8818H57.7821C57.7301 94.8818 57.6911 94.8688 57.6651 94.8428C57.6391 94.8082 57.6348 94.7605 57.6521 94.6998L60.4601 85.9118C60.4861 85.8252 60.5425 85.7818 60.6291 85.7818H62.6701C62.7568 85.7818 62.8131 85.8252 62.8391 85.9118L65.6471 94.6998C65.6558 94.7172 65.6601 94.7388 65.6601 94.7648C65.6601 94.8428 65.6125 94.8818 65.5171 94.8818H63.8661ZM60.4471 91.9308C60.4385 91.9828 60.4558 92.0088 60.4991 92.0088H62.7871C62.8391 92.0088 62.8565 91.9828 62.8391 91.9308L61.6691 88.0698C61.6605 88.0352 61.6475 88.0222 61.6301 88.0308C61.6128 88.0308 61.5998 88.0438 61.5911 88.0698L60.4471 91.9308ZM75.1904 94.8818C75.1037 94.8818 75.0474 94.8385 75.0214 94.7518L74.6314 93.4778C74.614 93.4432 74.5924 93.4258 74.5664 93.4258H71.3684C71.3424 93.4258 71.3207 93.4432 71.3034 93.4778L70.9264 94.7518C70.9004 94.8385 70.844 94.8818 70.7574 94.8818H69.1064C69.0544 94.8818 69.0154 94.8688 68.9894 94.8428C68.9634 94.8082 68.959 94.7605 68.9764 94.6998L71.7844 85.9118C71.8104 85.8252 71.8667 85.7818 71.9534 85.7818H73.9944C74.081 85.7818 74.1374 85.8252 74.1634 85.9118L76.9714 94.6998C76.98 94.7172 76.9844 94.7388 76.9844 94.7648C76.9844 94.8428 76.9367 94.8818 76.8414 94.8818H75.1904ZM71.7714 91.9308C71.7627 91.9828 71.78 92.0088 71.8234 92.0088H74.1114C74.1634 92.0088 74.1807 91.9828 74.1634 91.9308L72.9934 88.0698C72.9847 88.0352 72.9717 88.0222 72.9544 88.0308C72.937 88.0308 72.924 88.0438 72.9154 88.0698L71.7714 91.9308ZM81.2513 94.9858C80.584 94.9858 79.9946 94.8558 79.4833 94.5958C78.9806 94.3358 78.5863 93.9718 78.3003 93.5038C78.023 93.0272 77.8843 92.4812 77.8843 91.8658V85.9378C77.8843 85.8945 77.8973 85.8598 77.9233 85.8338C77.958 85.7992 77.997 85.7818 78.0403 85.7818H79.5613C79.6046 85.7818 79.6393 85.7992 79.6653 85.8338C79.7 85.8598 79.7173 85.8945 79.7173 85.9378V91.8788C79.7173 92.3382 79.856 92.7108 80.1333 92.9968C80.4193 93.2742 80.792 93.4128 81.2513 93.4128C81.7106 93.4128 82.079 93.2742 82.3563 92.9968C82.6423 92.7108 82.7853 92.3382 82.7853 91.8788V85.9378C82.7853 85.8945 82.7983 85.8598 82.8243 85.8338C82.859 85.7992 82.898 85.7818 82.9413 85.7818H84.4623C84.5056 85.7818 84.5403 85.7992 84.5663 85.8338C84.601 85.8598 84.6183 85.8945 84.6183 85.9378V91.8658C84.6183 92.4812 84.4753 93.0272 84.1893 93.5038C83.912 93.9718 83.5176 94.3358 83.0063 94.5958C82.5036 94.8558 81.9186 94.9858 81.2513 94.9858ZM86.2811 94.8818C86.2378 94.8818 86.1988 94.8688 86.1641 94.8428C86.1381 94.8082 86.1251 94.7692 86.1251 94.7258V85.9378C86.1251 85.8945 86.1381 85.8598 86.1641 85.8338C86.1988 85.7992 86.2378 85.7818 86.2811 85.7818H89.5311C90.1811 85.7818 90.7488 85.8988 91.2341 86.1328C91.7281 86.3582 92.1094 86.6788 92.3781 87.0948C92.6468 87.5108 92.7811 87.9918 92.7811 88.5378V92.1258C92.7811 92.6718 92.6468 93.1528 92.3781 93.5688C92.1094 93.9848 91.7281 94.3098 91.2341 94.5438C90.7488 94.7692 90.1811 94.8818 89.5311 94.8818H86.2811ZM87.9581 93.2438C87.9581 93.2872 87.9798 93.3088 88.0231 93.3088H89.5961C89.9948 93.3088 90.3154 93.1745 90.5581 92.9058C90.8094 92.6372 90.9394 92.2775 90.9481 91.8268V88.8368C90.9481 88.3862 90.8224 88.0265 90.5711 87.7578C90.3284 87.4892 89.9991 87.3548 89.5831 87.3548H88.0231C87.9798 87.3548 87.9581 87.3765 87.9581 87.4198V93.2438ZM94.3172 94.8818C94.2739 94.8818 94.2349 94.8688 94.2002 94.8428C94.1742 94.8082 94.1612 94.7692 94.1612 94.7258V85.9378C94.1612 85.8945 94.1742 85.8598 94.2002 85.8338C94.2349 85.7992 94.2739 85.7818 94.3172 85.7818H95.8382C95.8816 85.7818 95.9162 85.7992 95.9422 85.8338C95.9769 85.8598 95.9942 85.8945 95.9942 85.9378V94.7258C95.9942 94.7692 95.9769 94.8082 95.9422 94.8428C95.9162 94.8688 95.8816 94.8818 95.8382 94.8818H94.3172ZM103.894 87.1988C103.894 87.2422 103.877 87.2812 103.842 87.3158C103.816 87.3418 103.782 87.3548 103.738 87.3548H99.4743C99.4309 87.3548 99.4093 87.3765 99.4093 87.4198V89.4348C99.4093 89.4782 99.4309 89.4998 99.4743 89.4998H102.269C102.313 89.4998 102.347 89.5172 102.373 89.5518C102.408 89.5778 102.425 89.6125 102.425 89.6558V90.9168C102.425 90.9602 102.408 90.9992 102.373 91.0338C102.347 91.0598 102.313 91.0728 102.269 91.0728H99.4743C99.4309 91.0728 99.4093 91.0945 99.4093 91.1378V93.2438C99.4093 93.2872 99.4309 93.3088 99.4743 93.3088H103.738C103.782 93.3088 103.816 93.3262 103.842 93.3608C103.877 93.3868 103.894 93.4215 103.894 93.4648V94.7258C103.894 94.7692 103.877 94.8082 103.842 94.8428C103.816 94.8688 103.782 94.8818 103.738 94.8818H97.7323C97.6889 94.8818 97.6499 94.8688 97.6153 94.8428C97.5893 94.8082 97.5763 94.7692 97.5763 94.7258V85.9378C97.5763 85.8945 97.5893 85.8598 97.6153 85.8338C97.6499 85.7992 97.6889 85.7818 97.7323 85.7818H103.738C103.782 85.7818 103.816 85.7992 103.842 85.8338C103.877 85.8598 103.894 85.8945 103.894 85.9378V87.1988ZM110.394 85.9378C110.394 85.8945 110.407 85.8598 110.433 85.8338C110.468 85.7992 110.507 85.7818 110.55 85.7818H112.071C112.114 85.7818 112.149 85.7992 112.175 85.8338C112.21 85.8598 112.227 85.8945 112.227 85.9378V94.7258C112.227 94.7692 112.21 94.8082 112.175 94.8428C112.149 94.8688 112.114 94.8818 112.071 94.8818H110.602C110.515 94.8818 110.455 94.8472 110.42 94.7778L107.053 89.2138C107.036 89.1878 107.018 89.1792 107.001 89.1878C106.984 89.1878 106.975 89.2052 106.975 89.2398L107.001 94.7258C107.001 94.7692 106.984 94.8082 106.949 94.8428C106.923 94.8688 106.888 94.8818 106.845 94.8818H105.324C105.281 94.8818 105.242 94.8688 105.207 94.8428C105.181 94.8082 105.168 94.7692 105.168 94.7258V85.9378C105.168 85.8945 105.181 85.8598 105.207 85.8338C105.242 85.7992 105.281 85.7818 105.324 85.7818H106.793C106.88 85.7818 106.94 85.8165 106.975 85.8858L110.329 91.4238C110.346 91.4498 110.364 91.4628 110.381 91.4628C110.398 91.4542 110.407 91.4325 110.407 91.3978L110.394 85.9378ZM117.012 94.9858C116.336 94.9858 115.742 94.8558 115.231 94.5958C114.719 94.3272 114.325 93.9545 114.048 93.4778C113.77 93.0012 113.632 92.4508 113.632 91.8268V88.8238C113.632 88.1998 113.77 87.6495 114.048 87.1728C114.325 86.6962 114.719 86.3278 115.231 86.0678C115.742 85.8078 116.336 85.6778 117.012 85.6778C117.679 85.6778 118.264 85.8035 118.767 86.0548C119.278 86.2975 119.672 86.6485 119.95 87.1078C120.236 87.5585 120.379 88.0828 120.379 88.6808C120.379 88.7588 120.327 88.8065 120.223 88.8238L118.702 88.9148H118.676C118.589 88.9148 118.546 88.8672 118.546 88.7718C118.546 88.3125 118.403 87.9442 118.117 87.6668C117.839 87.3895 117.471 87.2508 117.012 87.2508C116.544 87.2508 116.167 87.3895 115.881 87.6668C115.603 87.9442 115.465 88.3125 115.465 88.7718V91.9048C115.465 92.3555 115.603 92.7195 115.881 92.9968C116.167 93.2742 116.544 93.4128 117.012 93.4128C117.471 93.4128 117.839 93.2742 118.117 92.9968C118.403 92.7195 118.546 92.3555 118.546 91.9048C118.546 91.8095 118.598 91.7618 118.702 91.7618L120.223 91.8268C120.266 91.8268 120.301 91.8398 120.327 91.8658C120.361 91.8918 120.379 91.9222 120.379 91.9568C120.379 92.5548 120.236 93.0835 119.95 93.5428C119.672 94.0022 119.278 94.3575 118.767 94.6088C118.264 94.8602 117.679 94.9858 117.012 94.9858ZM121.879 94.8818C121.835 94.8818 121.796 94.8688 121.762 94.8428C121.736 94.8082 121.723 94.7692 121.723 94.7258V85.9378C121.723 85.8945 121.736 85.8598 121.762 85.8338C121.796 85.7992 121.835 85.7818 121.879 85.7818H123.4C123.443 85.7818 123.478 85.7992 123.504 85.8338C123.538 85.8598 123.556 85.8945 123.556 85.9378V94.7258C123.556 94.7692 123.538 94.8082 123.504 94.8428C123.478 94.8688 123.443 94.8818 123.4 94.8818H121.879ZM130.923 94.8818C130.836 94.8818 130.78 94.8385 130.754 94.7518L130.364 93.4778C130.346 93.4432 130.325 93.4258 130.299 93.4258H127.101C127.075 93.4258 127.053 93.4432 127.036 93.4778L126.659 94.7518C126.633 94.8385 126.576 94.8818 126.49 94.8818H124.839C124.787 94.8818 124.748 94.8688 124.722 94.8428C124.696 94.8082 124.691 94.7605 124.709 94.6998L127.517 85.9118C127.543 85.8252 127.599 85.7818 127.686 85.7818H129.727C129.813 85.7818 129.87 85.8252 129.896 85.9118L132.704 94.6998C132.712 94.7172 132.717 94.7388 132.717 94.7648C132.717 94.8428 132.669 94.8818 132.574 94.8818H130.923ZM127.504 91.9308C127.495 91.9828 127.512 92.0088 127.556 92.0088H129.844C129.896 92.0088 129.913 91.9828 129.896 91.9308L128.726 88.0698C128.717 88.0352 128.704 88.0222 128.687 88.0308C128.669 88.0308 128.656 88.0438 128.648 88.0698L127.504 91.9308Z" fill="black"/>
<path d="M204.057 86.9858C203.39 86.9858 202.801 86.8558 202.289 86.5958C201.787 86.3358 201.392 85.9718 201.106 85.5038C200.829 85.0272 200.69 84.4812 200.69 83.8658V77.9378C200.69 77.8945 200.703 77.8598 200.729 77.8338C200.764 77.7992 200.803 77.7818 200.846 77.7818H202.367C202.411 77.7818 202.445 77.7992 202.471 77.8338C202.506 77.8598 202.523 77.8945 202.523 77.9378V83.8788C202.523 84.3382 202.662 84.7108 202.939 84.9968C203.225 85.2742 203.598 85.4128 204.057 85.4128C204.517 85.4128 204.885 85.2742 205.162 84.9968C205.448 84.7108 205.591 84.3382 205.591 83.8788V77.9378C205.591 77.8945 205.604 77.8598 205.63 77.8338C205.665 77.7992 205.704 77.7818 205.747 77.7818H207.268C207.312 77.7818 207.346 77.7992 207.372 77.8338C207.407 77.8598 207.424 77.8945 207.424 77.9378V83.8658C207.424 84.4812 207.281 85.0272 206.995 85.5038C206.718 85.9718 206.324 86.3358 205.812 86.5958C205.31 86.8558 204.725 86.9858 204.057 86.9858ZM212.051 86.9858C211.358 86.9858 210.751 86.8775 210.231 86.6608C209.711 86.4355 209.308 86.1192 209.022 85.7118C208.745 85.2958 208.606 84.8148 208.606 84.2688V83.9828C208.606 83.9395 208.619 83.9048 208.645 83.8788C208.68 83.8442 208.719 83.8268 208.762 83.8268H210.244C210.287 83.8268 210.322 83.8442 210.348 83.8788C210.383 83.9048 210.4 83.9395 210.4 83.9828V84.1778C210.4 84.5245 210.56 84.8192 210.881 85.0618C211.202 85.2958 211.635 85.4128 212.181 85.4128C212.64 85.4128 212.983 85.3175 213.208 85.1268C213.433 84.9275 213.546 84.6848 213.546 84.3988C213.546 84.1908 213.477 84.0175 213.338 83.8788C213.199 83.7315 213.009 83.6058 212.766 83.5018C212.532 83.3892 212.155 83.2375 211.635 83.0468C211.054 82.8475 210.56 82.6438 210.153 82.4358C209.754 82.2278 209.416 81.9462 209.139 81.5908C208.87 81.2268 208.736 80.7805 208.736 80.2518C208.736 79.7318 208.87 79.2768 209.139 78.8868C209.408 78.4968 209.78 78.1978 210.257 77.9898C210.734 77.7818 211.284 77.6778 211.908 77.6778C212.567 77.6778 213.152 77.7948 213.663 78.0288C214.183 78.2628 214.586 78.5922 214.872 79.0168C215.167 79.4328 215.314 79.9182 215.314 80.4728V80.6678C215.314 80.7112 215.297 80.7502 215.262 80.7848C215.236 80.8108 215.201 80.8238 215.158 80.8238H213.663C213.62 80.8238 213.581 80.8108 213.546 80.7848C213.52 80.7502 213.507 80.7112 213.507 80.6678V80.5638C213.507 80.1998 213.355 79.8922 213.052 79.6408C212.757 79.3808 212.35 79.2508 211.83 79.2508C211.423 79.2508 211.102 79.3375 210.868 79.5108C210.643 79.6842 210.53 79.9225 210.53 80.2258C210.53 80.4425 210.595 80.6245 210.725 80.7718C210.864 80.9192 211.063 81.0535 211.323 81.1748C211.592 81.2875 212.003 81.4435 212.558 81.6428C213.173 81.8682 213.654 82.0675 214.001 82.2408C214.356 82.4142 214.673 82.6742 214.95 83.0208C215.236 83.3588 215.379 83.8008 215.379 84.3468C215.379 85.1615 215.08 85.8072 214.482 86.2838C213.884 86.7518 213.074 86.9858 212.051 86.9858ZM222.448 86.8818C222.361 86.8818 222.305 86.8385 222.279 86.7518L221.889 85.4778C221.871 85.4432 221.85 85.4258 221.824 85.4258H218.626C218.6 85.4258 218.578 85.4432 218.561 85.4778L218.184 86.7518C218.158 86.8385 218.101 86.8818 218.015 86.8818H216.364C216.312 86.8818 216.273 86.8688 216.247 86.8428C216.221 86.8082 216.216 86.7605 216.234 86.6998L219.042 77.9118C219.068 77.8252 219.124 77.7818 219.211 77.7818H221.252C221.338 77.7818 221.395 77.8252 221.421 77.9118L224.229 86.6998C224.237 86.7172 224.242 86.7388 224.242 86.7648C224.242 86.8428 224.194 86.8818 224.099 86.8818H222.448ZM219.029 83.9308C219.02 83.9828 219.037 84.0088 219.081 84.0088H221.369C221.421 84.0088 221.438 83.9828 221.421 83.9308L220.251 80.0698C220.242 80.0352 220.229 80.0222 220.212 80.0308C220.194 80.0308 220.181 80.0438 220.173 80.0698L219.029 83.9308ZM230.779 82.1368C230.727 82.1628 230.727 82.1888 230.779 82.2148C231.603 82.6395 232.014 83.3458 232.014 84.3338C232.014 85.1745 231.728 85.8115 231.156 86.2448C230.584 86.6695 229.835 86.8818 228.907 86.8818H225.54C225.497 86.8818 225.458 86.8688 225.423 86.8428C225.397 86.8082 225.384 86.7692 225.384 86.7258V77.9378C225.384 77.8945 225.397 77.8598 225.423 77.8338C225.458 77.7992 225.497 77.7818 225.54 77.7818H228.803C230.857 77.7818 231.884 78.6138 231.884 80.2778C231.884 81.1445 231.516 81.7642 230.779 82.1368ZM227.282 79.3548C227.239 79.3548 227.217 79.3765 227.217 79.4198V81.4478C227.217 81.4912 227.239 81.5128 227.282 81.5128H228.803C229.211 81.5128 229.527 81.4175 229.752 81.2268C229.978 81.0362 230.09 80.7762 230.09 80.4468C230.09 80.1088 229.978 79.8445 229.752 79.6538C229.527 79.4545 229.211 79.3548 228.803 79.3548H227.282ZM228.907 85.2958C229.306 85.2958 229.618 85.1962 229.843 84.9968C230.069 84.7888 230.181 84.5072 230.181 84.1518C230.181 83.7965 230.069 83.5192 229.843 83.3198C229.618 83.1118 229.302 83.0078 228.894 83.0078H227.282C227.239 83.0078 227.217 83.0295 227.217 83.0728V85.2308C227.217 85.2742 227.239 85.2958 227.282 85.2958H228.907ZM233.602 86.8818C233.558 86.8818 233.519 86.8688 233.485 86.8428C233.459 86.8082 233.446 86.7692 233.446 86.7258V77.9378C233.446 77.8945 233.459 77.8598 233.485 77.8338C233.519 77.7992 233.558 77.7818 233.602 77.7818H235.123C235.166 77.7818 235.201 77.7992 235.227 77.8338C235.261 77.8598 235.279 77.8945 235.279 77.9378V86.7258C235.279 86.7692 235.261 86.8082 235.227 86.8428C235.201 86.8688 235.166 86.8818 235.123 86.8818H233.602ZM237.017 86.8818C236.973 86.8818 236.934 86.8688 236.9 86.8428C236.874 86.8082 236.861 86.7692 236.861 86.7258V77.9378C236.861 77.8945 236.874 77.8598 236.9 77.8338C236.934 77.7992 236.973 77.7818 237.017 77.7818H238.538C238.581 77.7818 238.616 77.7992 238.642 77.8338C238.676 77.8598 238.694 77.8945 238.694 77.9378V85.2438C238.694 85.2872 238.715 85.3088 238.759 85.3088H243.01C243.053 85.3088 243.088 85.3262 243.114 85.3608C243.148 85.3868 243.166 85.4215 243.166 85.4648V86.7258C243.166 86.7692 243.148 86.8082 243.114 86.8428C243.088 86.8688 243.053 86.8818 243.01 86.8818H237.017ZM244.456 86.8818C244.413 86.8818 244.374 86.8688 244.339 86.8428C244.313 86.8082 244.3 86.7692 244.3 86.7258V77.9378C244.3 77.8945 244.313 77.8598 244.339 77.8338C244.374 77.7992 244.413 77.7818 244.456 77.7818H245.977C246.021 77.7818 246.055 77.7992 246.081 77.8338C246.116 77.8598 246.133 77.8945 246.133 77.9378V86.7258C246.133 86.7692 246.116 86.8082 246.081 86.8428C246.055 86.8688 246.021 86.8818 245.977 86.8818H244.456ZM247.871 86.8818C247.828 86.8818 247.789 86.8688 247.754 86.8428C247.728 86.8082 247.715 86.7692 247.715 86.7258V77.9378C247.715 77.8945 247.728 77.8598 247.754 77.8338C247.789 77.7992 247.828 77.7818 247.871 77.7818H251.121C251.771 77.7818 252.339 77.8988 252.824 78.1328C253.318 78.3582 253.7 78.6788 253.968 79.0948C254.237 79.5108 254.371 79.9918 254.371 80.5378V84.1258C254.371 84.6718 254.237 85.1528 253.968 85.5688C253.7 85.9848 253.318 86.3098 252.824 86.5438C252.339 86.7692 251.771 86.8818 251.121 86.8818H247.871ZM249.548 85.2438C249.548 85.2872 249.57 85.3088 249.613 85.3088H251.186C251.585 85.3088 251.906 85.1745 252.148 84.9058C252.4 84.6372 252.53 84.2775 252.538 83.8268V80.8368C252.538 80.3862 252.413 80.0265 252.161 79.7578C251.919 79.4892 251.589 79.3548 251.173 79.3548H249.613C249.57 79.3548 249.548 79.3765 249.548 79.4198V85.2438ZM261.041 86.8818C260.955 86.8818 260.898 86.8385 260.872 86.7518L260.482 85.4778C260.465 85.4432 260.443 85.4258 260.417 85.4258H257.219C257.193 85.4258 257.172 85.4432 257.154 85.4778L256.777 86.7518C256.751 86.8385 256.695 86.8818 256.608 86.8818H254.957C254.905 86.8818 254.866 86.8688 254.84 86.8428C254.814 86.8082 254.81 86.7605 254.827 86.6998L257.635 77.9118C257.661 77.8252 257.718 77.7818 257.804 77.7818H259.845C259.932 77.7818 259.988 77.8252 260.014 77.9118L262.822 86.6998C262.831 86.7172 262.835 86.7388 262.835 86.7648C262.835 86.8428 262.788 86.8818 262.692 86.8818H261.041ZM257.622 83.9308C257.614 83.9828 257.631 84.0088 257.674 84.0088H259.962C260.014 84.0088 260.032 83.9828 260.014 83.9308L258.844 80.0698C258.836 80.0352 258.823 80.0222 258.805 80.0308C258.788 80.0308 258.775 80.0438 258.766 80.0698L257.622 83.9308ZM264.134 86.8818C264.091 86.8818 264.052 86.8688 264.017 86.8428C263.991 86.8082 263.978 86.7692 263.978 86.7258V77.9378C263.978 77.8945 263.991 77.8598 264.017 77.8338C264.052 77.7992 264.091 77.7818 264.134 77.7818H267.384C268.034 77.7818 268.602 77.8988 269.087 78.1328C269.581 78.3582 269.962 78.6788 270.231 79.0948C270.5 79.5108 270.634 79.9918 270.634 80.5378V84.1258C270.634 84.6718 270.5 85.1528 270.231 85.5688C269.962 85.9848 269.581 86.3098 269.087 86.5438C268.602 86.7692 268.034 86.8818 267.384 86.8818H264.134ZM265.811 85.2438C265.811 85.2872 265.833 85.3088 265.876 85.3088H267.449C267.848 85.3088 268.168 85.1745 268.411 84.9058C268.662 84.6372 268.792 84.2775 268.801 83.8268V80.8368C268.801 80.3862 268.675 80.0265 268.424 79.7578C268.181 79.4892 267.852 79.3548 267.436 79.3548H265.876C265.833 79.3548 265.811 79.3765 265.811 79.4198V85.2438Z" fill="black"/>
<path d="M132.829 160.361C133.401 160.361 133.903 160.478 134.337 160.712C134.77 160.946 135.104 161.279 135.338 161.713C135.58 162.137 135.702 162.627 135.702 163.182C135.702 163.728 135.576 164.209 135.325 164.625C135.082 165.041 134.735 165.366 134.285 165.6C133.843 165.825 133.331 165.938 132.751 165.938H130.905C130.861 165.938 130.84 165.959 130.84 166.003V169.318C130.84 169.361 130.822 169.4 130.788 169.435C130.762 169.461 130.727 169.474 130.684 169.474H129.163C129.119 169.474 129.08 169.461 129.046 169.435C129.02 169.4 129.007 169.361 129.007 169.318V160.517C129.007 160.473 129.02 160.439 129.046 160.413C129.08 160.378 129.119 160.361 129.163 160.361H132.829ZM132.556 164.469C132.954 164.469 133.275 164.356 133.518 164.131C133.76 163.897 133.882 163.593 133.882 163.221C133.882 162.839 133.76 162.532 133.518 162.298C133.275 162.064 132.954 161.947 132.556 161.947H130.905C130.861 161.947 130.84 161.968 130.84 162.012V164.404C130.84 164.447 130.861 164.469 130.905 164.469H132.556ZM139.949 169.578C139.255 169.578 138.649 169.469 138.129 169.253C137.609 169.027 137.206 168.711 136.92 168.304C136.642 167.888 136.504 167.407 136.504 166.861V166.575C136.504 166.531 136.517 166.497 136.543 166.471C136.577 166.436 136.616 166.419 136.66 166.419H138.142C138.185 166.419 138.22 166.436 138.246 166.471C138.28 166.497 138.298 166.531 138.298 166.575V166.77C138.298 167.116 138.458 167.411 138.779 167.654C139.099 167.888 139.533 168.005 140.079 168.005C140.538 168.005 140.88 167.909 141.106 167.719C141.331 167.519 141.444 167.277 141.444 166.991C141.444 166.783 141.374 166.609 141.236 166.471C141.097 166.323 140.906 166.198 140.664 166.094C140.43 165.981 140.053 165.829 139.533 165.639C138.952 165.439 138.458 165.236 138.051 165.028C137.652 164.82 137.314 164.538 137.037 164.183C136.768 163.819 136.634 163.372 136.634 162.844C136.634 162.324 136.768 161.869 137.037 161.479C137.305 161.089 137.678 160.79 138.155 160.582C138.631 160.374 139.182 160.27 139.806 160.27C140.464 160.27 141.049 160.387 141.561 160.621C142.081 160.855 142.484 161.184 142.77 161.609C143.064 162.025 143.212 162.51 143.212 163.065V163.26C143.212 163.303 143.194 163.342 143.16 163.377C143.134 163.403 143.099 163.416 143.056 163.416H141.561C141.517 163.416 141.478 163.403 141.444 163.377C141.418 163.342 141.405 163.303 141.405 163.26V163.156C141.405 162.792 141.253 162.484 140.95 162.233C140.655 161.973 140.248 161.843 139.728 161.843C139.32 161.843 139 161.929 138.766 162.103C138.54 162.276 138.428 162.514 138.428 162.818C138.428 163.034 138.493 163.216 138.623 163.364C138.761 163.511 138.961 163.645 139.221 163.767C139.489 163.879 139.901 164.035 140.456 164.235C141.071 164.46 141.552 164.659 141.899 164.833C142.254 165.006 142.57 165.266 142.848 165.613C143.134 165.951 143.277 166.393 143.277 166.939C143.277 167.753 142.978 168.399 142.38 168.876C141.782 169.344 140.971 169.578 139.949 169.578ZM144.716 169.474C144.673 169.474 144.634 169.461 144.599 169.435C144.573 169.4 144.56 169.361 144.56 169.318V160.53C144.56 160.486 144.573 160.452 144.599 160.426C144.634 160.391 144.673 160.374 144.716 160.374H146.237C146.28 160.374 146.315 160.391 146.341 160.426C146.376 160.452 146.393 160.486 146.393 160.53V169.318C146.393 169.361 146.376 169.4 146.341 169.435C146.315 169.461 146.28 169.474 146.237 169.474H144.716ZM151.173 169.578C150.497 169.578 149.903 169.448 149.392 169.188C148.881 168.919 148.486 168.546 148.209 168.07C147.932 167.593 147.793 167.043 147.793 166.419V163.416C147.793 162.792 147.932 162.241 148.209 161.765C148.486 161.288 148.881 160.92 149.392 160.66C149.903 160.4 150.497 160.27 151.173 160.27C151.84 160.27 152.425 160.395 152.928 160.647C153.439 160.889 153.834 161.24 154.111 161.7C154.397 162.15 154.54 162.675 154.54 163.273C154.54 163.351 154.488 163.398 154.384 163.416L152.863 163.507H152.837C152.75 163.507 152.707 163.459 152.707 163.364C152.707 162.904 152.564 162.536 152.278 162.259C152.001 161.981 151.632 161.843 151.173 161.843C150.705 161.843 150.328 161.981 150.042 162.259C149.765 162.536 149.626 162.904 149.626 163.364V166.497C149.626 166.947 149.765 167.311 150.042 167.589C150.328 167.866 150.705 168.005 151.173 168.005C151.632 168.005 152.001 167.866 152.278 167.589C152.564 167.311 152.707 166.947 152.707 166.497C152.707 166.401 152.759 166.354 152.863 166.354L154.384 166.419C154.427 166.419 154.462 166.432 154.488 166.458C154.523 166.484 154.54 166.514 154.54 166.549C154.54 167.147 154.397 167.675 154.111 168.135C153.834 168.594 153.439 168.949 152.928 169.201C152.425 169.452 151.84 169.578 151.173 169.578ZM159.121 169.617C158.445 169.617 157.847 169.478 157.327 169.201C156.816 168.923 156.417 168.538 156.131 168.044C155.845 167.541 155.702 166.965 155.702 166.315V163.533C155.702 162.891 155.845 162.324 156.131 161.83C156.417 161.336 156.816 160.954 157.327 160.686C157.847 160.408 158.445 160.27 159.121 160.27C159.806 160.27 160.404 160.408 160.915 160.686C161.435 160.954 161.838 161.336 162.124 161.83C162.41 162.324 162.553 162.891 162.553 163.533V166.315C162.553 166.965 162.41 167.541 162.124 168.044C161.838 168.546 161.435 168.936 160.915 169.214C160.404 169.482 159.806 169.617 159.121 169.617ZM159.121 168.044C159.598 168.044 159.984 167.892 160.278 167.589C160.573 167.285 160.72 166.882 160.72 166.38V163.52C160.72 163.017 160.573 162.614 160.278 162.311C159.992 161.999 159.607 161.843 159.121 161.843C158.645 161.843 158.259 161.999 157.964 162.311C157.678 162.614 157.535 163.017 157.535 163.52V166.38C157.535 166.882 157.678 167.285 157.964 167.589C158.259 167.892 158.645 168.044 159.121 168.044ZM164.114 169.474C164.071 169.474 164.032 169.461 163.997 169.435C163.971 169.4 163.958 169.361 163.958 169.318V160.53C163.958 160.486 163.971 160.452 163.997 160.426C164.032 160.391 164.071 160.374 164.114 160.374H165.635C165.679 160.374 165.713 160.391 165.739 160.426C165.774 160.452 165.791 160.486 165.791 160.53V167.836C165.791 167.879 165.813 167.901 165.856 167.901H170.107C170.151 167.901 170.185 167.918 170.211 167.953C170.246 167.979 170.263 168.013 170.263 168.057V169.318C170.263 169.361 170.246 169.4 170.211 169.435C170.185 169.461 170.151 169.474 170.107 169.474H164.114ZM174.533 169.617C173.857 169.617 173.259 169.478 172.739 169.201C172.228 168.923 171.829 168.538 171.543 168.044C171.257 167.541 171.114 166.965 171.114 166.315V163.533C171.114 162.891 171.257 162.324 171.543 161.83C171.829 161.336 172.228 160.954 172.739 160.686C173.259 160.408 173.857 160.27 174.533 160.27C175.218 160.27 175.816 160.408 176.327 160.686C176.847 160.954 177.25 161.336 177.536 161.83C177.822 162.324 177.965 162.891 177.965 163.533V166.315C177.965 166.965 177.822 167.541 177.536 168.044C177.25 168.546 176.847 168.936 176.327 169.214C175.816 169.482 175.218 169.617 174.533 169.617ZM174.533 168.044C175.01 168.044 175.396 167.892 175.69 167.589C175.985 167.285 176.132 166.882 176.132 166.38V163.52C176.132 163.017 175.985 162.614 175.69 162.311C175.404 161.999 175.019 161.843 174.533 161.843C174.057 161.843 173.671 161.999 173.376 162.311C173.09 162.614 172.947 163.017 172.947 163.52V166.38C172.947 166.882 173.09 167.285 173.376 167.589C173.671 167.892 174.057 168.044 174.533 168.044ZM182.569 169.578C181.901 169.578 181.312 169.443 180.801 169.175C180.289 168.906 179.891 168.533 179.605 168.057C179.327 167.571 179.189 167.012 179.189 166.38V163.468C179.189 162.835 179.327 162.276 179.605 161.791C179.891 161.305 180.289 160.933 180.801 160.673C181.312 160.404 181.901 160.27 182.569 160.27C183.227 160.27 183.808 160.4 184.311 160.66C184.822 160.92 185.216 161.275 185.494 161.726C185.78 162.168 185.923 162.662 185.923 163.208V163.299C185.923 163.342 185.905 163.381 185.871 163.416C185.845 163.442 185.81 163.455 185.767 163.455H184.246C184.202 163.455 184.163 163.442 184.129 163.416C184.103 163.381 184.09 163.342 184.09 163.299V163.26C184.09 162.861 183.951 162.527 183.674 162.259C183.396 161.981 183.028 161.843 182.569 161.843C182.101 161.843 181.724 161.99 181.438 162.285C181.16 162.571 181.022 162.948 181.022 163.416V166.432C181.022 166.9 181.173 167.281 181.477 167.576C181.78 167.862 182.166 168.005 182.634 168.005C183.084 168.005 183.444 167.888 183.713 167.654C183.981 167.411 184.116 167.077 184.116 166.653V166.068C184.116 166.024 184.094 166.003 184.051 166.003H182.595C182.551 166.003 182.512 165.99 182.478 165.964C182.452 165.929 182.439 165.89 182.439 165.847V164.651C182.439 164.607 182.452 164.573 182.478 164.547C182.512 164.512 182.551 164.495 182.595 164.495H185.767C185.81 164.495 185.845 164.512 185.871 164.547C185.905 164.573 185.923 164.607 185.923 164.651V166.367C185.923 167.025 185.784 167.597 185.507 168.083C185.229 168.568 184.835 168.941 184.324 169.201C183.821 169.452 183.236 169.578 182.569 169.578ZM187.487 169.474C187.443 169.474 187.404 169.461 187.37 169.435C187.344 169.4 187.331 169.361 187.331 169.318V160.53C187.331 160.486 187.344 160.452 187.37 160.426C187.404 160.391 187.443 160.374 187.487 160.374H189.008C189.051 160.374 189.086 160.391 189.112 160.426C189.146 160.452 189.164 160.486 189.164 160.53V169.318C189.164 169.361 189.146 169.4 189.112 169.435C189.086 169.461 189.051 169.474 189.008 169.474H187.487ZM187.526 159.568C187.465 159.568 187.426 159.55 187.409 159.516C187.391 159.481 187.396 159.438 187.422 159.386L188.111 158.073C188.145 157.995 188.21 157.956 188.306 157.956H189.619C189.679 157.956 189.718 157.977 189.736 158.021C189.762 158.055 189.757 158.099 189.723 158.151L188.8 159.464C188.756 159.533 188.696 159.568 188.618 159.568H187.526ZM196.531 169.474C196.444 169.474 196.388 169.43 196.362 169.344L195.972 168.07C195.954 168.035 195.933 168.018 195.907 168.018H192.709C192.683 168.018 192.661 168.035 192.644 168.07L192.267 169.344C192.241 169.43 192.184 169.474 192.098 169.474H190.447C190.395 169.474 190.356 169.461 190.33 169.435C190.304 169.4 190.299 169.352 190.317 169.292L193.125 160.504C193.151 160.417 193.207 160.374 193.294 160.374H195.335C195.421 160.374 195.478 160.417 195.504 160.504L198.312 169.292C198.32 169.309 198.325 169.331 198.325 169.357C198.325 169.435 198.277 169.474 198.182 169.474H196.531ZM193.112 166.523C193.103 166.575 193.12 166.601 193.164 166.601H195.452C195.504 166.601 195.521 166.575 195.504 166.523L194.334 162.662C194.325 162.627 194.312 162.614 194.295 162.623C194.277 162.623 194.264 162.636 194.256 162.662L193.112 166.523ZM136.205 185.578C135.529 185.578 134.936 185.448 134.424 185.188C133.913 184.919 133.519 184.546 133.241 184.07C132.964 183.593 132.825 183.043 132.825 182.419V179.416C132.825 178.792 132.964 178.241 133.241 177.765C133.519 177.288 133.913 176.92 134.424 176.66C134.936 176.4 135.529 176.27 136.205 176.27C136.873 176.27 137.458 176.395 137.96 176.647C138.472 176.889 138.866 177.24 139.143 177.7C139.429 178.15 139.572 178.675 139.572 179.273C139.572 179.351 139.52 179.398 139.416 179.416L137.895 179.507H137.869C137.783 179.507 137.739 179.459 137.739 179.364C137.739 178.904 137.596 178.536 137.31 178.259C137.033 177.981 136.665 177.843 136.205 177.843C135.737 177.843 135.36 177.981 135.074 178.259C134.797 178.536 134.658 178.904 134.658 179.364V182.497C134.658 182.947 134.797 183.311 135.074 183.589C135.36 183.866 135.737 184.005 136.205 184.005C136.665 184.005 137.033 183.866 137.31 183.589C137.596 183.311 137.739 182.947 137.739 182.497C137.739 182.401 137.791 182.354 137.895 182.354L139.416 182.419C139.46 182.419 139.494 182.432 139.52 182.458C139.555 182.484 139.572 182.514 139.572 182.549C139.572 183.147 139.429 183.675 139.143 184.135C138.866 184.594 138.472 184.949 137.96 185.201C137.458 185.452 136.873 185.578 136.205 185.578ZM144.153 185.617C143.477 185.617 142.879 185.478 142.359 185.201C141.848 184.923 141.449 184.538 141.163 184.044C140.877 183.541 140.734 182.965 140.734 182.315V179.533C140.734 178.891 140.877 178.324 141.163 177.83C141.449 177.336 141.848 176.954 142.359 176.686C142.879 176.408 143.477 176.27 144.153 176.27C144.838 176.27 145.436 176.408 145.947 176.686C146.467 176.954 146.87 177.336 147.156 177.83C147.442 178.324 147.585 178.891 147.585 179.533V182.315C147.585 182.965 147.442 183.541 147.156 184.044C146.87 184.546 146.467 184.936 145.947 185.214C145.436 185.482 144.838 185.617 144.153 185.617ZM144.153 184.044C144.63 184.044 145.016 183.892 145.31 183.589C145.605 183.285 145.752 182.882 145.752 182.38V179.52C145.752 179.017 145.605 178.614 145.31 178.311C145.024 177.999 144.639 177.843 144.153 177.843C143.677 177.843 143.291 177.999 142.996 178.311C142.71 178.614 142.567 179.017 142.567 179.52V182.38C142.567 182.882 142.71 183.285 142.996 183.589C143.291 183.892 143.677 184.044 144.153 184.044ZM152.189 185.578C151.521 185.578 150.932 185.443 150.421 185.175C149.909 184.906 149.511 184.533 149.225 184.057C148.947 183.571 148.809 183.012 148.809 182.38V179.468C148.809 178.835 148.947 178.276 149.225 177.791C149.511 177.305 149.909 176.933 150.421 176.673C150.932 176.404 151.521 176.27 152.189 176.27C152.847 176.27 153.428 176.4 153.931 176.66C154.442 176.92 154.836 177.275 155.114 177.726C155.4 178.168 155.543 178.662 155.543 179.208V179.299C155.543 179.342 155.525 179.381 155.491 179.416C155.465 179.442 155.43 179.455 155.387 179.455H153.866C153.822 179.455 153.783 179.442 153.749 179.416C153.723 179.381 153.71 179.342 153.71 179.299V179.26C153.71 178.861 153.571 178.527 153.294 178.259C153.016 177.981 152.648 177.843 152.189 177.843C151.721 177.843 151.344 177.99 151.058 178.285C150.78 178.571 150.642 178.948 150.642 179.416V182.432C150.642 182.9 150.793 183.281 151.097 183.576C151.4 183.862 151.786 184.005 152.254 184.005C152.704 184.005 153.064 183.888 153.333 183.654C153.601 183.411 153.736 183.077 153.736 182.653V182.068C153.736 182.024 153.714 182.003 153.671 182.003H152.215C152.171 182.003 152.132 181.99 152.098 181.964C152.072 181.929 152.059 181.89 152.059 181.847V180.651C152.059 180.607 152.072 180.573 152.098 180.547C152.132 180.512 152.171 180.495 152.215 180.495H155.387C155.43 180.495 155.465 180.512 155.491 180.547C155.525 180.573 155.543 180.607 155.543 180.651V182.367C155.543 183.025 155.404 183.597 155.127 184.083C154.849 184.568 154.455 184.941 153.944 185.201C153.441 185.452 152.856 185.578 152.189 185.578ZM162.177 176.53C162.177 176.486 162.19 176.452 162.216 176.426C162.25 176.391 162.289 176.374 162.333 176.374H163.854C163.897 176.374 163.932 176.391 163.958 176.426C163.992 176.452 164.01 176.486 164.01 176.53V185.318C164.01 185.361 163.992 185.4 163.958 185.435C163.932 185.461 163.897 185.474 163.854 185.474H162.385C162.298 185.474 162.237 185.439 162.203 185.37L158.836 179.806C158.818 179.78 158.801 179.771 158.784 179.78C158.766 179.78 158.758 179.797 158.758 179.832L158.784 185.318C158.784 185.361 158.766 185.4 158.732 185.435C158.706 185.461 158.671 185.474 158.628 185.474H157.107C157.063 185.474 157.024 185.461 156.99 185.435C156.964 185.4 156.951 185.361 156.951 185.318V176.53C156.951 176.486 156.964 176.452 156.99 176.426C157.024 176.391 157.063 176.374 157.107 176.374H158.576C158.662 176.374 158.723 176.408 158.758 176.478L162.112 182.016C162.129 182.042 162.146 182.055 162.164 182.055C162.181 182.046 162.19 182.024 162.19 181.99L162.177 176.53ZM165.752 185.474C165.709 185.474 165.67 185.461 165.635 185.435C165.609 185.4 165.596 185.361 165.596 185.318V176.53C165.596 176.486 165.609 176.452 165.635 176.426C165.67 176.391 165.709 176.374 165.752 176.374H167.273C167.316 176.374 167.351 176.391 167.377 176.426C167.412 176.452 167.429 176.486 167.429 176.53V185.318C167.429 185.361 167.412 185.4 167.377 185.435C167.351 185.461 167.316 185.474 167.273 185.474H165.752ZM175.29 176.374C175.334 176.374 175.368 176.391 175.394 176.426C175.429 176.452 175.446 176.486 175.446 176.53V177.804C175.446 177.847 175.429 177.886 175.394 177.921C175.368 177.947 175.334 177.96 175.29 177.96H172.963C172.92 177.96 172.898 177.981 172.898 178.025V185.318C172.898 185.361 172.881 185.4 172.846 185.435C172.82 185.461 172.786 185.474 172.742 185.474H171.221C171.178 185.474 171.139 185.461 171.104 185.435C171.078 185.4 171.065 185.361 171.065 185.318V178.025C171.065 177.981 171.044 177.96 171 177.96H168.738C168.695 177.96 168.656 177.947 168.621 177.921C168.595 177.886 168.582 177.847 168.582 177.804V176.53C168.582 176.486 168.595 176.452 168.621 176.426C168.656 176.391 168.695 176.374 168.738 176.374H175.29ZM176.772 185.474C176.728 185.474 176.689 185.461 176.655 185.435C176.629 185.4 176.616 185.361 176.616 185.318V176.53C176.616 176.486 176.629 176.452 176.655 176.426C176.689 176.391 176.728 176.374 176.772 176.374H178.293C178.336 176.374 178.371 176.391 178.397 176.426C178.431 176.452 178.449 176.486 178.449 176.53V185.318C178.449 185.361 178.431 185.4 178.397 185.435C178.371 185.461 178.336 185.474 178.293 185.474H176.772ZM182.449 185.474C182.362 185.474 182.306 185.43 182.28 185.344L179.602 176.556L179.589 176.504C179.589 176.417 179.636 176.374 179.732 176.374H181.37C181.465 176.374 181.526 176.417 181.552 176.504L183.281 182.848C183.289 182.874 183.302 182.887 183.32 182.887C183.337 182.887 183.35 182.874 183.359 182.848L185.062 176.504C185.088 176.417 185.148 176.374 185.244 176.374H186.843C186.895 176.374 186.934 176.391 186.96 176.426C186.986 176.46 186.99 176.504 186.973 176.556L184.256 185.344C184.23 185.43 184.173 185.474 184.087 185.474H182.449ZM192.595 185.474C192.508 185.474 192.452 185.43 192.426 185.344L192.036 184.07C192.019 184.035 191.997 184.018 191.971 184.018H188.773C188.747 184.018 188.725 184.035 188.708 184.07L188.331 185.344C188.305 185.43 188.249 185.474 188.162 185.474H186.511C186.459 185.474 186.42 185.461 186.394 185.435C186.368 185.4 186.364 185.352 186.381 185.292L189.189 176.504C189.215 176.417 189.271 176.374 189.358 176.374H191.399C191.486 176.374 191.542 176.417 191.568 176.504L194.376 185.292C194.385 185.309 194.389 185.331 194.389 185.357C194.389 185.435 194.341 185.474 194.246 185.474H192.595ZM189.176 182.523C189.167 182.575 189.185 182.601 189.228 182.601H191.516C191.568 182.601 191.585 182.575 191.568 182.523L190.398 178.662C190.389 178.627 190.376 178.614 190.359 178.623C190.342 178.623 190.329 178.636 190.32 178.662L189.176 182.523Z" fill="black"/>
<defs>
<filter id="filter0_d_1319_523" x="134.281" y="16" width="165.473" height="162.248" filterUnits="userSpaceOnUse" color-interpolation-filters="sRGB">
<feFlood flood-opacity="0" result="BackgroundImageFix"/>
<feColorMatrix in="SourceAlpha" type="matrix" values="0 0 0 0 0 0 0 0 0 0 0 0 0 0 0 0 0 0 127 0" result="hardAlpha"/>
<feOffset dy="3"/>
<feGaussianBlur stdDeviation="2"/>
<feComposite in2="hardAlpha" operator="out"/>
<feColorMatrix type="matrix" values="0 0 0 0 0 0 0 0 0 0 0 0 0 0 0 0 0 0 0.25 0"/>
<feBlend mode="normal" in2="BackgroundImageFix" result="effect1_dropShadow_1319_523"/>
<feBlend mode="normal" in="SourceGraphic" in2="effect1_dropShadow_1319_523" result="shape"/>
</filter>
<filter id="filter1_d_1319_523" x="23" y="16" width="165.473" height="162.248" filterUnits="userSpaceOnUse" color-interpolation-filters="sRGB">
<feFlood flood-opacity="0" result="BackgroundImageFix"/>
<feColorMatrix in="SourceAlpha" type="matrix" values="0 0 0 0 0 0 0 0 0 0 0 0 0 0 0 0 0 0 127 0" result="hardAlpha"/>
<feOffset dy="3"/>
<feGaussianBlur stdDeviation="2"/>
<feComposite in2="hardAlpha" operator="out"/>
<feColorMatrix type="matrix" values="0 0 0 0 0 0 0 0 0 0 0 0 0 0 0 0 0 0 0.25 0"/>
<feBlend mode="normal" in2="BackgroundImageFix" result="effect1_dropShadow_1319_523"/>
<feBlend mode="normal" in="SourceGraphic" in2="effect1_dropShadow_1319_523" result="shape"/>
</filter>
<filter id="filter2_d_1319_523" x="80.7401" y="86.9541" width="165.473" height="162.248" filterUnits="userSpaceOnUse" color-interpolation-filters="sRGB">
<feFlood flood-opacity="0" result="BackgroundImageFix"/>
<feColorMatrix in="SourceAlpha" type="matrix" values="0 0 0 0 0 0 0 0 0 0 0 0 0 0 0 0 0 0 127 0" result="hardAlpha"/>
<feOffset dy="3"/>
<feGaussianBlur stdDeviation="2"/>
<feComposite in2="hardAlpha" operator="out"/>
<feColorMatrix type="matrix" values="0 0 0 0 0 0 0 0 0 0 0 0 0 0 0 0 0 0 0.25 0"/>
<feBlend mode="normal" in2="BackgroundImageFix" result="effect1_dropShadow_1319_523"/>
<feBlend mode="normal" in="SourceGraphic" in2="effect1_dropShadow_1319_523" result="shape"/>
</filter>
</defs>
</svg>
