<svg width="313" height="251" viewBox="0 0 313 251" fill="none" xmlns="http://www.w3.org/2000/svg">
<ellipse cx="217.017" cy="94.124" rx="78.7364" ry="77.124" fill="#FD83E5"/>
<ellipse opacity="0.8" cx="105.736" cy="94.124" rx="78.7364" ry="77.124" fill="#FFFF5C"/>
<ellipse cx="163.477" cy="165.078" rx="78.7364" ry="77.124" fill="#DBC7C7"/>
<path d="M159.282 88.0256C152.294 88.9219 141.629 91.1848 139.267 92.6612C138.267 100.161 140.688 109.977 143.144 116.18C148.054 132.074 159.413 143.061 163.162 144.393C166.145 145.453 175.61 134.271 179.662 119.893C183.128 107.596 185.387 93.8886 184.113 91.6945C182.84 89.5004 167.906 87.5525 159.282 88.0256Z" fill="white" stroke="black" stroke-opacity="0.25" stroke-width="2"/>
<mask id="path-5-outside-1_1319_523" maskUnits="userSpaceOnUse" x="152.662" y="105.893" width="20" height="13" fill="black">
<rect fill="white" x="152.662" y="105.893" width="20" height="13"/>
<path d="M158.072 117.005C157.354 117.005 156.719 116.865 156.168 116.585C155.627 116.305 155.202 115.913 154.894 115.409C154.596 114.896 154.446 114.308 154.446 113.645V107.261C154.446 107.214 154.46 107.177 154.488 107.149C154.526 107.112 154.568 107.093 154.614 107.093H156.252C156.299 107.093 156.336 107.112 156.364 107.149C156.402 107.177 156.42 107.214 156.42 107.261V113.659C156.42 114.154 156.57 114.555 156.868 114.863C157.176 115.162 157.578 115.311 158.072 115.311C158.567 115.311 158.964 115.162 159.262 114.863C159.57 114.555 159.724 114.154 159.724 113.659V107.261C159.724 107.214 159.738 107.177 159.766 107.149C159.804 107.112 159.846 107.093 159.892 107.093H161.53C161.577 107.093 161.614 107.112 161.642 107.149C161.68 107.177 161.698 107.214 161.698 107.261V113.645C161.698 114.308 161.544 114.896 161.236 115.409C160.938 115.913 160.513 116.305 159.962 116.585C159.421 116.865 158.791 117.005 158.072 117.005ZM163.041 116.893C162.976 116.893 162.929 116.874 162.901 116.837C162.873 116.8 162.878 116.753 162.915 116.697L165.631 112.035C165.65 112.007 165.65 111.979 165.631 111.951L162.915 107.289L162.887 107.205C162.887 107.13 162.938 107.093 163.041 107.093H164.819C164.912 107.093 164.982 107.13 165.029 107.205L166.849 110.411C166.877 110.467 166.905 110.467 166.933 110.411L168.753 107.205C168.8 107.13 168.87 107.093 168.963 107.093H170.727C170.792 107.093 170.839 107.112 170.867 107.149C170.895 107.186 170.89 107.233 170.853 107.289L168.137 111.951C168.128 111.979 168.128 112.007 168.137 112.035L170.853 116.697L170.881 116.781C170.881 116.856 170.83 116.893 170.727 116.893H168.963C168.87 116.893 168.8 116.856 168.753 116.781L166.933 113.589C166.905 113.533 166.877 113.533 166.849 113.589L165.015 116.781C164.968 116.856 164.898 116.893 164.805 116.893H163.041Z"/>
</mask>
<path d="M158.072 117.005C157.354 117.005 156.719 116.865 156.168 116.585C155.627 116.305 155.202 115.913 154.894 115.409C154.596 114.896 154.446 114.308 154.446 113.645V107.261C154.446 107.214 154.46 107.177 154.488 107.149C154.526 107.112 154.568 107.093 154.614 107.093H156.252C156.299 107.093 156.336 107.112 156.364 107.149C156.402 107.177 156.42 107.214 156.42 107.261V113.659C156.42 114.154 156.57 114.555 156.868 114.863C157.176 115.162 157.578 115.311 158.072 115.311C158.567 115.311 158.964 115.162 159.262 114.863C159.57 114.555 159.724 114.154 159.724 113.659V107.261C159.724 107.214 159.738 107.177 159.766 107.149C159.804 107.112 159.846 107.093 159.892 107.093H161.53C161.577 107.093 161.614 107.112 161.642 107.149C161.68 107.177 161.698 107.214 161.698 107.261V113.645C161.698 114.308 161.544 114.896 161.236 115.409C160.938 115.913 160.513 116.305 159.962 116.585C159.421 116.865 158.791 117.005 158.072 117.005ZM163.041 116.893C162.976 116.893 162.929 116.874 162.901 116.837C162.873 116.8 162.878 116.753 162.915 116.697L165.631 112.035C165.65 112.007 165.65 111.979 165.631 111.951L162.915 107.289L162.887 107.205C162.887 107.13 162.938 107.093 163.041 107.093H164.819C164.912 107.093 164.982 107.13 165.029 107.205L166.849 110.411C166.877 110.467 166.905 110.467 166.933 110.411L168.753 107.205C168.8 107.13 168.87 107.093 168.963 107.093H170.727C170.792 107.093 170.839 107.112 170.867 107.149C170.895 107.186 170.89 107.233 170.853 107.289L168.137 111.951C168.128 111.979 168.128 112.007 168.137 112.035L170.853 116.697L170.881 116.781C170.881 116.856 170.83 116.893 170.727 116.893H168.963C168.87 116.893 168.8 116.856 168.753 116.781L166.933 113.589C166.905 113.533 166.877 113.533 166.849 113.589L165.015 116.781C164.968 116.856 164.898 116.893 164.805 116.893H163.041Z" fill="white"/>
<path d="M156.168 116.585L155.709 117.473L155.715 117.476L156.168 116.585ZM154.894 115.409L154.03 115.912L154.035 115.921L154.041 115.931L154.894 115.409ZM154.488 107.149L153.781 106.442L153.781 106.442L154.488 107.149ZM156.364 107.149L155.564 107.749L155.65 107.863L155.764 107.949L156.364 107.149ZM156.868 114.863L156.15 115.559L156.161 115.57L156.172 115.581L156.868 114.863ZM159.262 114.863L158.555 114.156L158.555 114.156L159.262 114.863ZM159.766 107.149L159.059 106.442L159.059 106.442L159.766 107.149ZM161.642 107.149L160.842 107.749L160.928 107.863L161.042 107.949L161.642 107.149ZM161.236 115.409L160.379 114.895L160.376 114.899L161.236 115.409ZM159.962 116.585L159.509 115.694L159.503 115.697L159.962 116.585ZM158.072 116.005C157.485 116.005 157.01 115.891 156.621 115.694L155.715 117.476C156.427 117.839 157.222 118.005 158.072 118.005V116.005ZM156.628 115.697C156.243 115.498 155.957 115.231 155.748 114.888L154.041 115.931C154.447 116.596 155.011 117.112 155.709 117.473L156.628 115.697ZM155.759 114.906C155.559 114.563 155.446 114.152 155.446 113.645H153.446C153.446 114.463 153.632 115.229 154.03 115.912L155.759 114.906ZM155.446 113.645V107.261H153.446V113.645H155.446ZM155.446 107.261C155.446 107.338 155.435 107.438 155.393 107.549C155.35 107.663 155.283 107.769 155.195 107.856L153.781 106.442C153.532 106.691 153.446 107 153.446 107.261H155.446ZM155.195 107.856C155.14 107.912 155.06 107.974 154.954 108.021C154.845 108.069 154.729 108.093 154.614 108.093V106.093C154.267 106.093 153.979 106.244 153.781 106.442L155.195 107.856ZM154.614 108.093H156.252V106.093H154.614V108.093ZM156.252 108.093C156.139 108.093 156.004 108.069 155.868 108.001C155.732 107.934 155.632 107.84 155.564 107.749L157.164 106.549C156.947 106.26 156.614 106.093 156.252 106.093V108.093ZM155.764 107.949C155.674 107.881 155.58 107.781 155.512 107.645C155.444 107.509 155.42 107.374 155.42 107.261H157.42C157.42 106.9 157.253 106.566 156.964 106.349L155.764 107.949ZM155.42 107.261V113.659H157.42V107.261H155.42ZM155.42 113.659C155.42 114.371 155.643 115.036 156.15 115.559L157.586 114.167C157.496 114.074 157.42 113.937 157.42 113.659H155.42ZM156.172 115.581C156.695 116.088 157.361 116.311 158.072 116.311V114.311C157.795 114.311 157.657 114.235 157.564 114.145L156.172 115.581ZM158.072 116.311C158.783 116.311 159.451 116.088 159.969 115.57L158.555 114.156C158.476 114.235 158.351 114.311 158.072 114.311V116.311ZM159.969 115.57C160.491 115.049 160.724 114.38 160.724 113.659H158.724C158.724 113.928 158.65 114.061 158.555 114.156L159.969 115.57ZM160.724 113.659V107.261H158.724V113.659H160.724ZM160.724 107.261C160.724 107.338 160.713 107.438 160.671 107.549C160.628 107.663 160.561 107.769 160.473 107.856L159.059 106.442C158.81 106.691 158.724 107 158.724 107.261H160.724ZM160.473 107.856C160.418 107.912 160.338 107.974 160.232 108.021C160.123 108.069 160.007 108.093 159.892 108.093V106.093C159.545 106.093 159.257 106.244 159.059 106.442L160.473 107.856ZM159.892 108.093H161.53V106.093H159.892V108.093ZM161.53 108.093C161.417 108.093 161.282 108.069 161.146 108.001C161.01 107.934 160.91 107.84 160.842 107.749L162.442 106.549C162.225 106.26 161.892 106.093 161.53 106.093V108.093ZM161.042 107.949C160.952 107.881 160.858 107.781 160.79 107.645C160.722 107.509 160.698 107.374 160.698 107.261H162.698C162.698 106.9 162.531 106.566 162.242 106.349L161.042 107.949ZM160.698 107.261V113.645H162.698V107.261H160.698ZM160.698 113.645C160.698 114.146 160.584 114.553 160.379 114.895L162.094 115.924C162.505 115.239 162.698 114.469 162.698 113.645H160.698ZM160.376 114.899C160.179 115.231 159.9 115.495 159.509 115.694L160.415 117.476C161.126 117.115 161.696 116.595 162.097 115.919L160.376 114.899ZM159.503 115.697C159.127 115.891 158.66 116.005 158.072 116.005V118.005C158.922 118.005 159.715 117.839 160.422 117.473L159.503 115.697ZM162.915 116.697L163.747 117.252L163.764 117.227L163.779 117.2L162.915 116.697ZM165.631 112.035L164.799 111.48L164.782 111.506L164.767 111.532L165.631 112.035ZM165.631 111.951L164.767 112.454L164.782 112.481L164.799 112.506L165.631 111.951ZM162.915 107.289L161.966 107.605L161.999 107.703L162.051 107.792L162.915 107.289ZM162.887 107.205H161.887V107.367L161.938 107.521L162.887 107.205ZM165.029 107.205L165.899 106.711L165.888 106.693L165.877 106.675L165.029 107.205ZM166.849 110.411L167.743 109.964L167.732 109.94L167.719 109.917L166.849 110.411ZM166.933 110.411L166.063 109.917L166.05 109.94L166.038 109.964L166.933 110.411ZM168.753 107.205L167.905 106.675L167.894 106.693L167.883 106.711L168.753 107.205ZM170.853 107.289L170.021 106.734L170.004 106.76L169.989 106.786L170.853 107.289ZM168.137 111.951L167.273 111.448L167.221 111.537L167.188 111.635L168.137 111.951ZM168.137 112.035L167.188 112.351L167.221 112.449L167.273 112.538L168.137 112.035ZM170.853 116.697L171.802 116.381L171.769 116.283L171.717 116.194L170.853 116.697ZM170.881 116.781H171.881V116.619L171.83 116.465L170.881 116.781ZM168.753 116.781L167.884 117.276L167.894 117.294L167.905 117.311L168.753 116.781ZM166.933 113.589L166.038 114.036L166.051 114.061L166.064 114.084L166.933 113.589ZM166.849 113.589L167.716 114.087L167.73 114.062L167.743 114.036L166.849 113.589ZM165.015 116.781L165.863 117.311L165.873 117.295L165.882 117.279L165.015 116.781ZM163.041 115.893C163.156 115.893 163.472 115.932 163.701 116.237L162.101 117.437C162.386 117.817 162.795 117.893 163.041 117.893V115.893ZM163.701 116.237C163.838 116.42 163.901 116.649 163.878 116.874C163.859 117.068 163.782 117.199 163.747 117.252L162.083 116.142C162.01 116.251 161.913 116.433 161.888 116.675C161.861 116.946 161.936 117.217 162.101 117.437L163.701 116.237ZM163.779 117.2L166.495 112.538L164.767 111.532L162.051 116.194L163.779 117.2ZM166.463 112.59C166.559 112.445 166.645 112.241 166.645 111.993C166.645 111.745 166.559 111.541 166.463 111.396L164.799 112.506C164.721 112.389 164.645 112.213 164.645 111.993C164.645 111.773 164.721 111.597 164.799 111.48L166.463 112.59ZM166.495 111.448L163.779 106.786L162.051 107.792L164.767 112.454L166.495 111.448ZM163.864 106.973L163.836 106.889L161.938 107.521L161.966 107.605L163.864 106.973ZM163.887 107.205C163.887 107.423 163.795 107.725 163.514 107.93C163.292 108.091 163.081 108.093 163.041 108.093V106.093C162.898 106.093 162.61 106.114 162.337 106.312C162.005 106.554 161.887 106.912 161.887 107.205H163.887ZM163.041 108.093H164.819V106.093H163.041V108.093ZM164.819 108.093C164.73 108.093 164.604 108.075 164.471 108.003C164.335 107.931 164.24 107.829 164.181 107.735L165.877 106.675C165.635 106.287 165.232 106.093 164.819 106.093V108.093ZM164.159 107.699L165.979 110.905L167.719 109.917L165.899 106.711L164.159 107.699ZM165.954 110.858C165.985 110.919 166.049 111.036 166.163 111.15C166.279 111.266 166.525 111.453 166.891 111.453C167.257 111.453 167.503 111.266 167.619 111.15C167.733 111.036 167.797 110.919 167.827 110.858L166.038 109.964C166.055 109.931 166.105 109.835 166.205 109.735C166.307 109.633 166.539 109.453 166.891 109.453C167.243 109.453 167.475 109.633 167.577 109.735C167.677 109.835 167.727 109.931 167.743 109.964L165.954 110.858ZM167.803 110.905L169.623 107.699L167.883 106.711L166.063 109.917L167.803 110.905ZM169.601 107.735C169.542 107.829 169.447 107.931 169.311 108.003C169.178 108.075 169.051 108.093 168.963 108.093V106.093C168.55 106.093 168.147 106.287 167.905 106.675L169.601 107.735ZM168.963 108.093H170.727V106.093H168.963V108.093ZM170.727 108.093C170.612 108.093 170.296 108.054 170.067 107.749L171.667 106.549C171.382 106.169 170.973 106.093 170.727 106.093V108.093ZM170.067 107.749C169.93 107.566 169.867 107.337 169.889 107.113C169.909 106.918 169.986 106.787 170.021 106.734L171.685 107.844C171.757 107.735 171.855 107.553 171.879 107.312C171.907 107.04 171.832 106.769 171.667 106.549L170.067 107.749ZM169.989 106.786L167.273 111.448L169.001 112.454L171.717 107.792L169.989 106.786ZM167.188 111.635C167.11 111.868 167.11 112.118 167.188 112.351L169.086 111.719C169.145 111.896 169.145 112.09 169.086 112.267L167.188 111.635ZM167.273 112.538L169.989 117.2L171.717 116.194L169.001 111.532L167.273 112.538ZM169.904 117.013L169.932 117.097L171.83 116.465L171.802 116.381L169.904 117.013ZM169.881 116.781C169.881 116.563 169.973 116.261 170.254 116.056C170.476 115.895 170.687 115.893 170.727 115.893V117.893C170.87 117.893 171.157 117.872 171.431 117.674C171.763 117.432 171.881 117.074 171.881 116.781H169.881ZM170.727 115.893H168.963V117.893H170.727V115.893ZM168.963 115.893C169.051 115.893 169.178 115.912 169.311 115.983C169.447 116.055 169.542 116.157 169.601 116.251L167.905 117.311C168.147 117.699 168.55 117.893 168.963 117.893V115.893ZM169.622 116.286L167.802 113.094L166.064 114.084L167.884 117.276L169.622 116.286ZM167.827 113.142C167.797 113.081 167.733 112.964 167.619 112.85C167.503 112.734 167.257 112.547 166.891 112.547C166.525 112.547 166.279 112.734 166.163 112.85C166.049 112.964 165.985 113.081 165.954 113.142L167.743 114.036C167.727 114.069 167.677 114.165 167.577 114.265C167.475 114.367 167.243 114.547 166.891 114.547C166.539 114.547 166.307 114.367 166.205 114.265C166.105 114.165 166.055 114.069 166.038 114.036L167.827 113.142ZM165.982 113.091L164.148 116.283L165.882 117.279L167.716 114.087L165.982 113.091ZM164.167 116.251C164.226 116.157 164.321 116.055 164.457 115.983C164.59 115.912 164.716 115.893 164.805 115.893V117.893C165.218 117.893 165.621 117.699 165.863 117.311L164.167 116.251ZM164.805 115.893H163.041V117.893H164.805V115.893Z" fill="black" mask="url(#path-5-outside-1_1319_523)"/>
<path d="M55.9696 71.1988C55.9696 71.2422 55.9522 71.2812 55.9176 71.3158C55.8916 71.3418 55.8569 71.3548 55.8136 71.3548H51.5496C51.5062 71.3548 51.4846 71.3765 51.4846 71.4198V73.4348C51.4846 73.4782 51.5062 73.4998 51.5496 73.4998H54.3446C54.3879 73.4998 54.4226 73.5172 54.4486 73.5518C54.4832 73.5778 54.5006 73.6125 54.5006 73.6558V74.9168C54.5006 74.9602 54.4832 74.9992 54.4486 75.0338C54.4226 75.0598 54.3879 75.0728 54.3446 75.0728H51.5496C51.5062 75.0728 51.4846 75.0945 51.4846 75.1378V77.2438C51.4846 77.2872 51.5062 77.3088 51.5496 77.3088H55.8136C55.8569 77.3088 55.8916 77.3262 55.9176 77.3608C55.9522 77.3868 55.9696 77.4215 55.9696 77.4648V78.7258C55.9696 78.7692 55.9522 78.8082 55.9176 78.8428C55.8916 78.8688 55.8569 78.8818 55.8136 78.8818H49.8076C49.7642 78.8818 49.7252 78.8688 49.6906 78.8428C49.6646 78.8082 49.6516 78.7692 49.6516 78.7258V69.9378C49.6516 69.8945 49.6646 69.8598 49.6906 69.8338C49.7252 69.7992 49.7642 69.7818 49.8076 69.7818H55.8136C55.8569 69.7818 55.8916 69.7992 55.9176 69.8338C55.9522 69.8598 55.9696 69.8945 55.9696 69.9378V71.1988ZM62.4694 69.9378C62.4694 69.8945 62.4824 69.8598 62.5084 69.8338C62.543 69.7992 62.582 69.7818 62.6254 69.7818H64.1464C64.1897 69.7818 64.2244 69.7992 64.2504 69.8338C64.285 69.8598 64.3024 69.8945 64.3024 69.9378V78.7258C64.3024 78.7692 64.285 78.8082 64.2504 78.8428C64.2244 78.8688 64.1897 78.8818 64.1464 78.8818H62.6774C62.5907 78.8818 62.53 78.8472 62.4954 78.7778L59.1284 73.2138C59.111 73.1878 59.0937 73.1792 59.0764 73.1878C59.059 73.1878 59.0504 73.2052 59.0504 73.2398L59.0764 78.7258C59.0764 78.7692 59.059 78.8082 59.0244 78.8428C58.9984 78.8688 58.9637 78.8818 58.9204 78.8818H57.3994C57.356 78.8818 57.317 78.8688 57.2824 78.8428C57.2564 78.8082 57.2434 78.7692 57.2434 78.7258V69.9378C57.2434 69.8945 57.2564 69.8598 57.2824 69.8338C57.317 69.7992 57.356 69.7818 57.3994 69.7818H58.8684C58.955 69.7818 59.0157 69.8165 59.0504 69.8858L62.4044 75.4238C62.4217 75.4498 62.439 75.4628 62.4564 75.4628C62.4737 75.4542 62.4824 75.4325 62.4824 75.3978L62.4694 69.9378ZM72.1679 69.7818C72.2112 69.7818 72.2459 69.7992 72.2719 69.8338C72.3066 69.8598 72.3239 69.8945 72.3239 69.9378V71.2118C72.3239 71.2552 72.3066 71.2942 72.2719 71.3288C72.2459 71.3548 72.2112 71.3678 72.1679 71.3678H69.8409C69.7976 71.3678 69.7759 71.3895 69.7759 71.4328V78.7258C69.7759 78.7692 69.7586 78.8082 69.7239 78.8428C69.6979 78.8688 69.6632 78.8818 69.6199 78.8818H68.0989C68.0556 78.8818 68.0166 78.8688 67.9819 78.8428C67.9559 78.8082 67.9429 78.7692 67.9429 78.7258V71.4328C67.9429 71.3895 67.9212 71.3678 67.8779 71.3678H65.6159C65.5726 71.3678 65.5336 71.3548 65.4989 71.3288C65.4729 71.2942 65.4599 71.2552 65.4599 71.2118V69.9378C65.4599 69.8945 65.4729 69.8598 65.4989 69.8338C65.5336 69.7992 65.5726 69.7818 65.6159 69.7818H72.1679ZM79.8114 71.1988C79.8114 71.2422 79.794 71.2812 79.7594 71.3158C79.7334 71.3418 79.6987 71.3548 79.6554 71.3548H75.3914C75.348 71.3548 75.3264 71.3765 75.3264 71.4198V73.4348C75.3264 73.4782 75.348 73.4998 75.3914 73.4998H78.1864C78.2297 73.4998 78.2644 73.5172 78.2904 73.5518C78.325 73.5778 78.3424 73.6125 78.3424 73.6558V74.9168C78.3424 74.9602 78.325 74.9992 78.2904 75.0338C78.2644 75.0598 78.2297 75.0728 78.1864 75.0728H75.3914C75.348 75.0728 75.3264 75.0945 75.3264 75.1378V77.2438C75.3264 77.2872 75.348 77.3088 75.3914 77.3088H79.6554C79.6987 77.3088 79.7334 77.3262 79.7594 77.3608C79.794 77.3868 79.8114 77.4215 79.8114 77.4648V78.7258C79.8114 78.7692 79.794 78.8082 79.7594 78.8428C79.7334 78.8688 79.6987 78.8818 79.6554 78.8818H73.6494C73.606 78.8818 73.567 78.8688 73.5324 78.8428C73.5064 78.8082 73.4934 78.7692 73.4934 78.7258V69.9378C73.4934 69.8945 73.5064 69.8598 73.5324 69.8338C73.567 69.7992 73.606 69.7818 73.6494 69.7818H79.6554C79.6987 69.7818 79.7334 69.7992 79.7594 69.8338C79.794 69.8598 79.8114 69.8945 79.8114 69.9378V71.1988ZM86.3112 69.9378C86.3112 69.8945 86.3242 69.8598 86.3502 69.8338C86.3848 69.7992 86.4238 69.7818 86.4672 69.7818H87.9882C88.0315 69.7818 88.0662 69.7992 88.0922 69.8338C88.1268 69.8598 88.1442 69.8945 88.1442 69.9378V78.7258C88.1442 78.7692 88.1268 78.8082 88.0922 78.8428C88.0662 78.8688 88.0315 78.8818 87.9882 78.8818H86.5192C86.4325 78.8818 86.3718 78.8472 86.3372 78.7778L82.9702 73.2138C82.9528 73.1878 82.9355 73.1792 82.9182 73.1878C82.9008 73.1878 82.8922 73.2052 82.8922 73.2398L82.9182 78.7258C82.9182 78.7692 82.9008 78.8082 82.8662 78.8428C82.8402 78.8688 82.8055 78.8818 82.7622 78.8818H81.2412C81.1978 78.8818 81.1588 78.8688 81.1242 78.8428C81.0982 78.8082 81.0852 78.7692 81.0852 78.7258V69.9378C81.0852 69.8945 81.0982 69.8598 81.1242 69.8338C81.1588 69.7992 81.1978 69.7818 81.2412 69.7818H82.7102C82.7968 69.7818 82.8575 69.8165 82.8922 69.8858L86.2462 75.4238C86.2635 75.4498 86.2808 75.4628 86.2982 75.4628C86.3155 75.4542 86.3242 75.4325 86.3242 75.3978L86.3112 69.9378ZM89.8105 78.8818C89.7672 78.8818 89.7282 78.8688 89.6935 78.8428C89.6675 78.8082 89.6545 78.7692 89.6545 78.7258V69.9378C89.6545 69.8945 89.6675 69.8598 89.6935 69.8338C89.7282 69.7992 89.7672 69.7818 89.8105 69.7818H93.0605C93.7105 69.7818 94.2782 69.8988 94.7635 70.1328C95.2575 70.3582 95.6388 70.6788 95.9075 71.0948C96.1762 71.5108 96.3105 71.9918 96.3105 72.5378V76.1258C96.3105 76.6718 96.1762 77.1528 95.9075 77.5688C95.6388 77.9848 95.2575 78.3098 94.7635 78.5438C94.2782 78.7692 93.7105 78.8818 93.0605 78.8818H89.8105ZM91.4875 77.2438C91.4875 77.2872 91.5092 77.3088 91.5525 77.3088H93.1255C93.5242 77.3088 93.8448 77.1745 94.0875 76.9058C94.3388 76.6372 94.4688 76.2775 94.4775 75.8268V72.8368C94.4775 72.3862 94.3518 72.0265 94.1005 71.7578C93.8578 71.4892 93.5285 71.3548 93.1125 71.3548H91.5525C91.5092 71.3548 91.4875 71.3765 91.4875 71.4198V77.2438ZM104.009 71.1988C104.009 71.2422 103.991 71.2812 103.957 71.3158C103.931 71.3418 103.896 71.3548 103.853 71.3548H99.5886C99.5453 71.3548 99.5236 71.3765 99.5236 71.4198V73.4348C99.5236 73.4782 99.5453 73.4998 99.5886 73.4998H102.384C102.427 73.4998 102.462 73.5172 102.488 73.5518C102.522 73.5778 102.54 73.6125 102.54 73.6558V74.9168C102.54 74.9602 102.522 74.9992 102.488 75.0338C102.462 75.0598 102.427 75.0728 102.384 75.0728H99.5886C99.5453 75.0728 99.5236 75.0945 99.5236 75.1378V77.2438C99.5236 77.2872 99.5453 77.3088 99.5886 77.3088H103.853C103.896 77.3088 103.931 77.3262 103.957 77.3608C103.991 77.3868 104.009 77.4215 104.009 77.4648V78.7258C104.009 78.7692 103.991 78.8082 103.957 78.8428C103.931 78.8688 103.896 78.8818 103.853 78.8818H97.8466C97.8033 78.8818 97.7643 78.8688 97.7296 78.8428C97.7036 78.8082 97.6906 78.7692 97.6906 78.7258V69.9378C97.6906 69.8945 97.7036 69.8598 97.7296 69.8338C97.7643 69.7992 97.8033 69.7818 97.8466 69.7818H103.853C103.896 69.7818 103.931 69.7992 103.957 69.8338C103.991 69.8598 104.009 69.8945 104.009 69.9378V71.1988ZM110.274 78.8818C110.188 78.8818 110.127 78.8428 110.092 78.7648L108.467 75.1638C108.45 75.1292 108.424 75.1118 108.389 75.1118H107.18C107.137 75.1118 107.115 75.1335 107.115 75.1768V78.7258C107.115 78.7692 107.098 78.8082 107.063 78.8428C107.037 78.8688 107.003 78.8818 106.959 78.8818H105.438C105.395 78.8818 105.356 78.8688 105.321 78.8428C105.295 78.8082 105.282 78.7692 105.282 78.7258V69.9378C105.282 69.8945 105.295 69.8598 105.321 69.8338C105.356 69.7992 105.395 69.7818 105.438 69.7818H109.156C109.711 69.7818 110.196 69.8945 110.612 70.1198C111.037 70.3452 111.362 70.6658 111.587 71.0818C111.821 71.4978 111.938 71.9788 111.938 72.5248C111.938 73.1142 111.791 73.6212 111.496 74.0458C111.202 74.4618 110.79 74.7565 110.261 74.9298C110.218 74.9472 110.205 74.9775 110.222 75.0208L111.99 78.6998C112.008 78.7345 112.016 78.7605 112.016 78.7778C112.016 78.8472 111.969 78.8818 111.873 78.8818H110.274ZM107.18 71.3548C107.137 71.3548 107.115 71.3765 107.115 71.4198V73.6428C107.115 73.6862 107.137 73.7078 107.18 73.7078H108.883C109.247 73.7078 109.542 73.5995 109.767 73.3828C110.001 73.1662 110.118 72.8845 110.118 72.5378C110.118 72.1912 110.001 71.9095 109.767 71.6928C109.542 71.4675 109.247 71.3548 108.883 71.3548H107.18ZM121.655 78.8818C121.569 78.8818 121.512 78.8385 121.486 78.7518L121.096 77.4778C121.079 77.4432 121.057 77.4258 121.031 77.4258H117.833C117.807 77.4258 117.786 77.4432 117.768 77.4778L117.391 78.7518C117.365 78.8385 117.309 78.8818 117.222 78.8818H115.571C115.519 78.8818 115.48 78.8688 115.454 78.8428C115.428 78.8082 115.424 78.7605 115.441 78.6998L118.249 69.9118C118.275 69.8252 118.332 69.7818 118.418 69.7818H120.459C120.546 69.7818 120.602 69.8252 120.628 69.9118L123.436 78.6998C123.445 78.7172 123.449 78.7388 123.449 78.7648C123.449 78.8428 123.402 78.8818 123.306 78.8818H121.655ZM118.236 75.9308C118.228 75.9828 118.245 76.0088 118.288 76.0088H120.576C120.628 76.0088 120.646 75.9828 120.628 75.9308L119.458 72.0698C119.45 72.0352 119.437 72.0222 119.419 72.0308C119.402 72.0308 119.389 72.0438 119.38 72.0698L118.236 75.9308ZM46.8623 94.8818C46.8189 94.8818 46.7799 94.8688 46.7453 94.8428C46.7193 94.8082 46.7063 94.7692 46.7063 94.7258V85.9378C46.7063 85.8945 46.7193 85.8598 46.7453 85.8338C46.7799 85.7992 46.8189 85.7818 46.8623 85.7818H48.3833C48.4266 85.7818 48.4613 85.7992 48.4873 85.8338C48.5219 85.8598 48.5393 85.8945 48.5393 85.9378V93.2438C48.5393 93.2872 48.5609 93.3088 48.6043 93.3088H52.8553C52.8986 93.3088 52.9333 93.3262 52.9593 93.3608C52.9939 93.3868 53.0113 93.4215 53.0113 93.4648V94.7258C53.0113 94.7692 52.9939 94.8082 52.9593 94.8428C52.9333 94.8688 52.8986 94.8818 52.8553 94.8818H46.8623ZM60.1465 94.8818C60.0599 94.8818 60.0035 94.8385 59.9775 94.7518L59.5875 93.4778C59.5702 93.4432 59.5485 93.4258 59.5225 93.4258H56.3245C56.2985 93.4258 56.2769 93.4432 56.2595 93.4778L55.8825 94.7518C55.8565 94.8385 55.8002 94.8818 55.7135 94.8818H54.0625C54.0105 94.8818 53.9715 94.8688 53.9455 94.8428C53.9195 94.8082 53.9152 94.7605 53.9325 94.6998L56.7405 85.9118C56.7665 85.8252 56.8229 85.7818 56.9095 85.7818H58.9505C59.0372 85.7818 59.0935 85.8252 59.1195 85.9118L61.9275 94.6998C61.9362 94.7172 61.9405 94.7388 61.9405 94.7648C61.9405 94.8428 61.8929 94.8818 61.7975 94.8818H60.1465ZM56.7275 91.9308C56.7189 91.9828 56.7362 92.0088 56.7795 92.0088H59.0675C59.1195 92.0088 59.1369 91.9828 59.1195 91.9308L57.9495 88.0698C57.9409 88.0352 57.9279 88.0222 57.9105 88.0308C57.8932 88.0308 57.8802 88.0438 57.8715 88.0698L56.7275 91.9308ZM71.4708 94.8818C71.3841 94.8818 71.3278 94.8385 71.3018 94.7518L70.9118 93.4778C70.8944 93.4432 70.8728 93.4258 70.8468 93.4258H67.6488C67.6228 93.4258 67.6011 93.4432 67.5838 93.4778L67.2068 94.7518C67.1808 94.8385 67.1244 94.8818 67.0378 94.8818H65.3868C65.3348 94.8818 65.2958 94.8688 65.2698 94.8428C65.2438 94.8082 65.2394 94.7605 65.2568 94.6998L68.0648 85.9118C68.0908 85.8252 68.1471 85.7818 68.2338 85.7818H70.2748C70.3614 85.7818 70.4178 85.8252 70.4438 85.9118L73.2518 94.6998C73.2604 94.7172 73.2648 94.7388 73.2648 94.7648C73.2648 94.8428 73.2171 94.8818 73.1218 94.8818H71.4708ZM68.0518 91.9308C68.0431 91.9828 68.0604 92.0088 68.1038 92.0088H70.3918C70.4438 92.0088 70.4611 91.9828 70.4438 91.9308L69.2738 88.0698C69.2651 88.0352 69.2521 88.0222 69.2348 88.0308C69.2174 88.0308 69.2044 88.0438 69.1958 88.0698L68.0518 91.9308ZM77.5317 94.9858C76.8644 94.9858 76.275 94.8558 75.7637 94.5958C75.261 94.3358 74.8667 93.9718 74.5807 93.5038C74.3034 93.0272 74.1647 92.4812 74.1647 91.8658V85.9378C74.1647 85.8945 74.1777 85.8598 74.2037 85.8338C74.2384 85.7992 74.2774 85.7818 74.3207 85.7818H75.8417C75.885 85.7818 75.9197 85.7992 75.9457 85.8338C75.9804 85.8598 75.9977 85.8945 75.9977 85.9378V91.8788C75.9977 92.3382 76.1364 92.7108 76.4137 92.9968C76.6997 93.2742 77.0724 93.4128 77.5317 93.4128C77.991 93.4128 78.3594 93.2742 78.6367 92.9968C78.9227 92.7108 79.0657 92.3382 79.0657 91.8788V85.9378C79.0657 85.8945 79.0787 85.8598 79.1047 85.8338C79.1394 85.7992 79.1784 85.7818 79.2217 85.7818H80.7427C80.786 85.7818 80.8207 85.7992 80.8467 85.8338C80.8814 85.8598 80.8987 85.8945 80.8987 85.9378V91.8658C80.8987 92.4812 80.7557 93.0272 80.4697 93.5038C80.1924 93.9718 79.798 94.3358 79.2867 94.5958C78.784 94.8558 78.199 94.9858 77.5317 94.9858ZM82.5615 94.8818C82.5182 94.8818 82.4792 94.8688 82.4445 94.8428C82.4185 94.8082 82.4055 94.7692 82.4055 94.7258V85.9378C82.4055 85.8945 82.4185 85.8598 82.4445 85.8338C82.4792 85.7992 82.5182 85.7818 82.5615 85.7818H85.8115C86.4615 85.7818 87.0292 85.8988 87.5145 86.1328C88.0085 86.3582 88.3898 86.6788 88.6585 87.0948C88.9272 87.5108 89.0615 87.9918 89.0615 88.5378V92.1258C89.0615 92.6718 88.9272 93.1528 88.6585 93.5688C88.3898 93.9848 88.0085 94.3098 87.5145 94.5438C87.0292 94.7692 86.4615 94.8818 85.8115 94.8818H82.5615ZM84.2385 93.2438C84.2385 93.2872 84.2602 93.3088 84.3035 93.3088H85.8765C86.2752 93.3088 86.5958 93.1745 86.8385 92.9058C87.0898 92.6372 87.2198 92.2775 87.2285 91.8268V88.8368C87.2285 88.3862 87.1028 88.0265 86.8515 87.7578C86.6088 87.4892 86.2795 87.3548 85.8635 87.3548H84.3035C84.2602 87.3548 84.2385 87.3765 84.2385 87.4198V93.2438ZM90.5976 94.8818C90.5543 94.8818 90.5153 94.8688 90.4806 94.8428C90.4546 94.8082 90.4416 94.7692 90.4416 94.7258V85.9378C90.4416 85.8945 90.4546 85.8598 90.4806 85.8338C90.5153 85.7992 90.5543 85.7818 90.5976 85.7818H92.1186C92.162 85.7818 92.1966 85.7992 92.2226 85.8338C92.2573 85.8598 92.2746 85.8945 92.2746 85.9378V94.7258C92.2746 94.7692 92.2573 94.8082 92.2226 94.8428C92.1966 94.8688 92.162 94.8818 92.1186 94.8818H90.5976ZM100.175 87.1988C100.175 87.2422 100.157 87.2812 100.123 87.3158C100.097 87.3418 100.062 87.3548 100.019 87.3548H95.7547C95.7113 87.3548 95.6897 87.3765 95.6897 87.4198V89.4348C95.6897 89.4782 95.7113 89.4998 95.7547 89.4998H98.5497C98.593 89.4998 98.6277 89.5172 98.6537 89.5518C98.6883 89.5778 98.7057 89.6125 98.7057 89.6558V90.9168C98.7057 90.9602 98.6883 90.9992 98.6537 91.0338C98.6277 91.0598 98.593 91.0728 98.5497 91.0728H95.7547C95.7113 91.0728 95.6897 91.0945 95.6897 91.1378V93.2438C95.6897 93.2872 95.7113 93.3088 95.7547 93.3088H100.019C100.062 93.3088 100.097 93.3262 100.123 93.3608C100.157 93.3868 100.175 93.4215 100.175 93.4648V94.7258C100.175 94.7692 100.157 94.8082 100.123 94.8428C100.097 94.8688 100.062 94.8818 100.019 94.8818H94.0127C93.9693 94.8818 93.9303 94.8688 93.8957 94.8428C93.8697 94.8082 93.8567 94.7692 93.8567 94.7258V85.9378C93.8567 85.8945 93.8697 85.8598 93.8957 85.8338C93.9303 85.7992 93.9693 85.7818 94.0127 85.7818H100.019C100.062 85.7818 100.097 85.7992 100.123 85.8338C100.157 85.8598 100.175 85.8945 100.175 85.9378V87.1988ZM106.674 85.9378C106.674 85.8945 106.687 85.8598 106.713 85.8338C106.748 85.7992 106.787 85.7818 106.83 85.7818H108.351C108.395 85.7818 108.429 85.7992 108.455 85.8338C108.49 85.8598 108.507 85.8945 108.507 85.9378V94.7258C108.507 94.7692 108.49 94.8082 108.455 94.8428C108.429 94.8688 108.395 94.8818 108.351 94.8818H106.882C106.796 94.8818 106.735 94.8472 106.7 94.7778L103.333 89.2138C103.316 89.1878 103.299 89.1792 103.281 89.1878C103.264 89.1878 103.255 89.2052 103.255 89.2398L103.281 94.7258C103.281 94.7692 103.264 94.8082 103.229 94.8428C103.203 94.8688 103.169 94.8818 103.125 94.8818H101.604C101.561 94.8818 101.522 94.8688 101.487 94.8428C101.461 94.8082 101.448 94.7692 101.448 94.7258V85.9378C101.448 85.8945 101.461 85.8598 101.487 85.8338C101.522 85.7992 101.561 85.7818 101.604 85.7818H103.073C103.16 85.7818 103.221 85.8165 103.255 85.8858L106.609 91.4238C106.627 91.4498 106.644 91.4628 106.661 91.4628C106.679 91.4542 106.687 91.4325 106.687 91.3978L106.674 85.9378ZM113.292 94.9858C112.616 94.9858 112.022 94.8558 111.511 94.5958C111 94.3272 110.605 93.9545 110.328 93.4778C110.051 93.0012 109.912 92.4508 109.912 91.8268V88.8238C109.912 88.1998 110.051 87.6495 110.328 87.1728C110.605 86.6962 111 86.3278 111.511 86.0678C112.022 85.8078 112.616 85.6778 113.292 85.6778C113.959 85.6778 114.544 85.8035 115.047 86.0548C115.558 86.2975 115.953 86.6485 116.23 87.1078C116.516 87.5585 116.659 88.0828 116.659 88.6808C116.659 88.7588 116.607 88.8065 116.503 88.8238L114.982 88.9148H114.956C114.869 88.9148 114.826 88.8672 114.826 88.7718C114.826 88.3125 114.683 87.9442 114.397 87.6668C114.12 87.3895 113.751 87.2508 113.292 87.2508C112.824 87.2508 112.447 87.3895 112.161 87.6668C111.884 87.9442 111.745 88.3125 111.745 88.7718V91.9048C111.745 92.3555 111.884 92.7195 112.161 92.9968C112.447 93.2742 112.824 93.4128 113.292 93.4128C113.751 93.4128 114.12 93.2742 114.397 92.9968C114.683 92.7195 114.826 92.3555 114.826 91.9048C114.826 91.8095 114.878 91.7618 114.982 91.7618L116.503 91.8268C116.546 91.8268 116.581 91.8398 116.607 91.8658C116.642 91.8918 116.659 91.9222 116.659 91.9568C116.659 92.5548 116.516 93.0835 116.23 93.5428C115.953 94.0022 115.558 94.3575 115.047 94.6088C114.544 94.8602 113.959 94.9858 113.292 94.9858ZM118.159 94.8818C118.116 94.8818 118.077 94.8688 118.042 94.8428C118.016 94.8082 118.003 94.7692 118.003 94.7258V85.9378C118.003 85.8945 118.016 85.8598 118.042 85.8338C118.077 85.7992 118.116 85.7818 118.159 85.7818H119.68C119.723 85.7818 119.758 85.7992 119.784 85.8338C119.819 85.8598 119.836 85.8945 119.836 85.9378V94.7258C119.836 94.7692 119.819 94.8082 119.784 94.8428C119.758 94.8688 119.723 94.8818 119.68 94.8818H118.159ZM127.203 94.8818C127.117 94.8818 127.06 94.8385 127.034 94.7518L126.644 93.4778C126.627 93.4432 126.605 93.4258 126.579 93.4258H123.381C123.355 93.4258 123.334 93.4432 123.316 93.4778L122.939 94.7518C122.913 94.8385 122.857 94.8818 122.77 94.8818H121.119C121.067 94.8818 121.028 94.8688 121.002 94.8428C120.976 94.8082 120.972 94.7605 120.989 94.6998L123.797 85.9118C123.823 85.8252 123.88 85.7818 123.966 85.7818H126.007C126.094 85.7818 126.15 85.8252 126.176 85.9118L128.984 94.6998C128.993 94.7172 128.997 94.7388 128.997 94.7648C128.997 94.8428 128.95 94.8818 128.854 94.8818H127.203ZM123.784 91.9308C123.776 91.9828 123.793 92.0088 123.836 92.0088H126.124C126.176 92.0088 126.194 91.9828 126.176 91.9308L125.006 88.0698C124.998 88.0352 124.985 88.0222 124.967 88.0308C124.95 88.0308 124.937 88.0438 124.928 88.0698L123.784 91.9308Z" fill="black"/>
<path d="M204.057 86.9858C203.39 86.9858 202.801 86.8558 202.289 86.5958C201.787 86.3358 201.392 85.9718 201.106 85.5038C200.829 85.0272 200.69 84.4812 200.69 83.8658V77.9378C200.69 77.8945 200.703 77.8598 200.729 77.8338C200.764 77.7992 200.803 77.7818 200.846 77.7818H202.367C202.411 77.7818 202.445 77.7992 202.471 77.8338C202.506 77.8598 202.523 77.8945 202.523 77.9378V83.8788C202.523 84.3382 202.662 84.7108 202.939 84.9968C203.225 85.2742 203.598 85.4128 204.057 85.4128C204.517 85.4128 204.885 85.2742 205.162 84.9968C205.448 84.7108 205.591 84.3382 205.591 83.8788V77.9378C205.591 77.8945 205.604 77.8598 205.63 77.8338C205.665 77.7992 205.704 77.7818 205.747 77.7818H207.268C207.312 77.7818 207.346 77.7992 207.372 77.8338C207.407 77.8598 207.424 77.8945 207.424 77.9378V83.8658C207.424 84.4812 207.281 85.0272 206.995 85.5038C206.718 85.9718 206.324 86.3358 205.812 86.5958C205.31 86.8558 204.725 86.9858 204.057 86.9858ZM212.051 86.9858C211.358 86.9858 210.751 86.8775 210.231 86.6608C209.711 86.4355 209.308 86.1192 209.022 85.7118C208.745 85.2958 208.606 84.8148 208.606 84.2688V83.9828C208.606 83.9395 208.619 83.9048 208.645 83.8788C208.68 83.8442 208.719 83.8268 208.762 83.8268H210.244C210.287 83.8268 210.322 83.8442 210.348 83.8788C210.383 83.9048 210.4 83.9395 210.4 83.9828V84.1778C210.4 84.5245 210.56 84.8192 210.881 85.0618C211.202 85.2958 211.635 85.4128 212.181 85.4128C212.64 85.4128 212.983 85.3175 213.208 85.1268C213.433 84.9275 213.546 84.6848 213.546 84.3988C213.546 84.1908 213.477 84.0175 213.338 83.8788C213.199 83.7315 213.009 83.6058 212.766 83.5018C212.532 83.3892 212.155 83.2375 211.635 83.0468C211.054 82.8475 210.56 82.6438 210.153 82.4358C209.754 82.2278 209.416 81.9462 209.139 81.5908C208.87 81.2268 208.736 80.7805 208.736 80.2518C208.736 79.7318 208.87 79.2768 209.139 78.8868C209.408 78.4968 209.78 78.1978 210.257 77.9898C210.734 77.7818 211.284 77.6778 211.908 77.6778C212.567 77.6778 213.152 77.7948 213.663 78.0288C214.183 78.2628 214.586 78.5922 214.872 79.0168C215.167 79.4328 215.314 79.9182 215.314 80.4728V80.6678C215.314 80.7112 215.297 80.7502 215.262 80.7848C215.236 80.8108 215.201 80.8238 215.158 80.8238H213.663C213.62 80.8238 213.581 80.8108 213.546 80.7848C213.52 80.7502 213.507 80.7112 213.507 80.6678V80.5638C213.507 80.1998 213.355 79.8922 213.052 79.6408C212.757 79.3808 212.35 79.2508 211.83 79.2508C211.423 79.2508 211.102 79.3375 210.868 79.5108C210.643 79.6842 210.53 79.9225 210.53 80.2258C210.53 80.4425 210.595 80.6245 210.725 80.7718C210.864 80.9192 211.063 81.0535 211.323 81.1748C211.592 81.2875 212.003 81.4435 212.558 81.6428C213.173 81.8682 213.654 82.0675 214.001 82.2408C214.356 82.4142 214.673 82.6742 214.95 83.0208C215.236 83.3588 215.379 83.8008 215.379 84.3468C215.379 85.1615 215.08 85.8072 214.482 86.2838C213.884 86.7518 213.074 86.9858 212.051 86.9858ZM222.448 86.8818C222.361 86.8818 222.305 86.8385 222.279 86.7518L221.889 85.4778C221.871 85.4432 221.85 85.4258 221.824 85.4258H218.626C218.6 85.4258 218.578 85.4432 218.561 85.4778L218.184 86.7518C218.158 86.8385 218.101 86.8818 218.015 86.8818H216.364C216.312 86.8818 216.273 86.8688 216.247 86.8428C216.221 86.8082 216.216 86.7605 216.234 86.6998L219.042 77.9118C219.068 77.8252 219.124 77.7818 219.211 77.7818H221.252C221.338 77.7818 221.395 77.8252 221.421 77.9118L224.229 86.6998C224.237 86.7172 224.242 86.7388 224.242 86.7648C224.242 86.8428 224.194 86.8818 224.099 86.8818H222.448ZM219.029 83.9308C219.02 83.9828 219.037 84.0088 219.081 84.0088H221.369C221.421 84.0088 221.438 83.9828 221.421 83.9308L220.251 80.0698C220.242 80.0352 220.229 80.0222 220.212 80.0308C220.194 80.0308 220.181 80.0438 220.173 80.0698L219.029 83.9308ZM230.779 82.1368C230.727 82.1628 230.727 82.1888 230.779 82.2148C231.603 82.6395 232.014 83.3458 232.014 84.3338C232.014 85.1745 231.728 85.8115 231.156 86.2448C230.584 86.6695 229.835 86.8818 228.907 86.8818H225.54C225.497 86.8818 225.458 86.8688 225.423 86.8428C225.397 86.8082 225.384 86.7692 225.384 86.7258V77.9378C225.384 77.8945 225.397 77.8598 225.423 77.8338C225.458 77.7992 225.497 77.7818 225.54 77.7818H228.803C230.857 77.7818 231.884 78.6138 231.884 80.2778C231.884 81.1445 231.516 81.7642 230.779 82.1368ZM227.282 79.3548C227.239 79.3548 227.217 79.3765 227.217 79.4198V81.4478C227.217 81.4912 227.239 81.5128 227.282 81.5128H228.803C229.211 81.5128 229.527 81.4175 229.752 81.2268C229.978 81.0362 230.09 80.7762 230.09 80.4468C230.09 80.1088 229.978 79.8445 229.752 79.6538C229.527 79.4545 229.211 79.3548 228.803 79.3548H227.282ZM228.907 85.2958C229.306 85.2958 229.618 85.1962 229.843 84.9968C230.069 84.7888 230.181 84.5072 230.181 84.1518C230.181 83.7965 230.069 83.5192 229.843 83.3198C229.618 83.1118 229.302 83.0078 228.894 83.0078H227.282C227.239 83.0078 227.217 83.0295 227.217 83.0728V85.2308C227.217 85.2742 227.239 85.2958 227.282 85.2958H228.907ZM233.602 86.8818C233.558 86.8818 233.519 86.8688 233.485 86.8428C233.459 86.8082 233.446 86.7692 233.446 86.7258V77.9378C233.446 77.8945 233.459 77.8598 233.485 77.8338C233.519 77.7992 233.558 77.7818 233.602 77.7818H235.123C235.166 77.7818 235.201 77.7992 235.227 77.8338C235.261 77.8598 235.279 77.8945 235.279 77.9378V86.7258C235.279 86.7692 235.261 86.8082 235.227 86.8428C235.201 86.8688 235.166 86.8818 235.123 86.8818H233.602ZM237.017 86.8818C236.973 86.8818 236.934 86.8688 236.9 86.8428C236.874 86.8082 236.861 86.7692 236.861 86.7258V77.9378C236.861 77.8945 236.874 77.8598 236.9 77.8338C236.934 77.7992 236.973 77.7818 237.017 77.7818H238.538C238.581 77.7818 238.616 77.7992 238.642 77.8338C238.676 77.8598 238.694 77.8945 238.694 77.9378V85.2438C238.694 85.2872 238.715 85.3088 238.759 85.3088H243.01C243.053 85.3088 243.088 85.3262 243.114 85.3608C243.148 85.3868 243.166 85.4215 243.166 85.4648V86.7258C243.166 86.7692 243.148 86.8082 243.114 86.8428C243.088 86.8688 243.053 86.8818 243.01 86.8818H237.017ZM244.456 86.8818C244.413 86.8818 244.374 86.8688 244.339 86.8428C244.313 86.8082 244.3 86.7692 244.3 86.7258V77.9378C244.3 77.8945 244.313 77.8598 244.339 77.8338C244.374 77.7992 244.413 77.7818 244.456 77.7818H245.977C246.021 77.7818 246.055 77.7992 246.081 77.8338C246.116 77.8598 246.133 77.8945 246.133 77.9378V86.7258C246.133 86.7692 246.116 86.8082 246.081 86.8428C246.055 86.8688 246.021 86.8818 245.977 86.8818H244.456ZM247.871 86.8818C247.828 86.8818 247.789 86.8688 247.754 86.8428C247.728 86.8082 247.715 86.7692 247.715 86.7258V77.9378C247.715 77.8945 247.728 77.8598 247.754 77.8338C247.789 77.7992 247.828 77.7818 247.871 77.7818H251.121C251.771 77.7818 252.339 77.8988 252.824 78.1328C253.318 78.3582 253.7 78.6788 253.968 79.0948C254.237 79.5108 254.371 79.9918 254.371 80.5378V84.1258C254.371 84.6718 254.237 85.1528 253.968 85.5688C253.7 85.9848 253.318 86.3098 252.824 86.5438C252.339 86.7692 251.771 86.8818 251.121 86.8818H247.871ZM249.548 85.2438C249.548 85.2872 249.57 85.3088 249.613 85.3088H251.186C251.585 85.3088 251.906 85.1745 252.148 84.9058C252.4 84.6372 252.53 84.2775 252.538 83.8268V80.8368C252.538 80.3862 252.413 80.0265 252.161 79.7578C251.919 79.4892 251.589 79.3548 251.173 79.3548H249.613C249.57 79.3548 249.548 79.3765 249.548 79.4198V85.2438ZM261.041 86.8818C260.955 86.8818 260.898 86.8385 260.872 86.7518L260.482 85.4778C260.465 85.4432 260.443 85.4258 260.417 85.4258H257.219C257.193 85.4258 257.172 85.4432 257.154 85.4778L256.777 86.7518C256.751 86.8385 256.695 86.8818 256.608 86.8818H254.957C254.905 86.8818 254.866 86.8688 254.84 86.8428C254.814 86.8082 254.81 86.7605 254.827 86.6998L257.635 77.9118C257.661 77.8252 257.718 77.7818 257.804 77.7818H259.845C259.932 77.7818 259.988 77.8252 260.014 77.9118L262.822 86.6998C262.831 86.7172 262.835 86.7388 262.835 86.7648C262.835 86.8428 262.788 86.8818 262.692 86.8818H261.041ZM257.622 83.9308C257.614 83.9828 257.631 84.0088 257.674 84.0088H259.962C260.014 84.0088 260.032 83.9828 260.014 83.9308L258.844 80.0698C258.836 80.0352 258.823 80.0222 258.805 80.0308C258.788 80.0308 258.775 80.0438 258.766 80.0698L257.622 83.9308ZM264.134 86.8818C264.091 86.8818 264.052 86.8688 264.017 86.8428C263.991 86.8082 263.978 86.7692 263.978 86.7258V77.9378C263.978 77.8945 263.991 77.8598 264.017 77.8338C264.052 77.7992 264.091 77.7818 264.134 77.7818H267.384C268.034 77.7818 268.602 77.8988 269.087 78.1328C269.581 78.3582 269.962 78.6788 270.231 79.0948C270.5 79.5108 270.634 79.9918 270.634 80.5378V84.1258C270.634 84.6718 270.5 85.1528 270.231 85.5688C269.962 85.9848 269.581 86.3098 269.087 86.5438C268.602 86.7692 268.034 86.8818 267.384 86.8818H264.134ZM265.811 85.2438C265.811 85.2872 265.833 85.3088 265.876 85.3088H267.449C267.848 85.3088 268.168 85.1745 268.411 84.9058C268.662 84.6372 268.792 84.2775 268.801 83.8268V80.8368C268.801 80.3862 268.675 80.0265 268.424 79.7578C268.181 79.4892 267.852 79.3548 267.436 79.3548H265.876C265.833 79.3548 265.811 79.3765 265.811 79.4198V85.2438Z" fill="black"/>
<path d="M132.829 160.361C133.401 160.361 133.903 160.478 134.337 160.712C134.77 160.946 135.104 161.279 135.338 161.713C135.58 162.137 135.702 162.627 135.702 163.182C135.702 163.728 135.576 164.209 135.325 164.625C135.082 165.041 134.735 165.366 134.285 165.6C133.843 165.825 133.331 165.938 132.751 165.938H130.905C130.861 165.938 130.84 165.959 130.84 166.003V169.318C130.84 169.361 130.822 169.4 130.788 169.435C130.762 169.461 130.727 169.474 130.684 169.474H129.163C129.119 169.474 129.08 169.461 129.046 169.435C129.02 169.4 129.007 169.361 129.007 169.318V160.517C129.007 160.473 129.02 160.439 129.046 160.413C129.08 160.378 129.119 160.361 129.163 160.361H132.829ZM132.556 164.469C132.954 164.469 133.275 164.356 133.518 164.131C133.76 163.897 133.882 163.593 133.882 163.221C133.882 162.839 133.76 162.532 133.518 162.298C133.275 162.064 132.954 161.947 132.556 161.947H130.905C130.861 161.947 130.84 161.968 130.84 162.012V164.404C130.84 164.447 130.861 164.469 130.905 164.469H132.556ZM139.949 169.578C139.255 169.578 138.649 169.469 138.129 169.253C137.609 169.027 137.206 168.711 136.92 168.304C136.642 167.888 136.504 167.407 136.504 166.861V166.575C136.504 166.531 136.517 166.497 136.543 166.471C136.577 166.436 136.616 166.419 136.66 166.419H138.142C138.185 166.419 138.22 166.436 138.246 166.471C138.28 166.497 138.298 166.531 138.298 166.575V166.77C138.298 167.116 138.458 167.411 138.779 167.654C139.099 167.888 139.533 168.005 140.079 168.005C140.538 168.005 140.88 167.909 141.106 167.719C141.331 167.519 141.444 167.277 141.444 166.991C141.444 166.783 141.374 166.609 141.236 166.471C141.097 166.323 140.906 166.198 140.664 166.094C140.43 165.981 140.053 165.829 139.533 165.639C138.952 165.439 138.458 165.236 138.051 165.028C137.652 164.82 137.314 164.538 137.037 164.183C136.768 163.819 136.634 163.372 136.634 162.844C136.634 162.324 136.768 161.869 137.037 161.479C137.305 161.089 137.678 160.79 138.155 160.582C138.631 160.374 139.182 160.27 139.806 160.27C140.464 160.27 141.049 160.387 141.561 160.621C142.081 160.855 142.484 161.184 142.77 161.609C143.064 162.025 143.212 162.51 143.212 163.065V163.26C143.212 163.303 143.194 163.342 143.16 163.377C143.134 163.403 143.099 163.416 143.056 163.416H141.561C141.517 163.416 141.478 163.403 141.444 163.377C141.418 163.342 141.405 163.303 141.405 163.26V163.156C141.405 162.792 141.253 162.484 140.95 162.233C140.655 161.973 140.248 161.843 139.728 161.843C139.32 161.843 139 161.929 138.766 162.103C138.54 162.276 138.428 162.514 138.428 162.818C138.428 163.034 138.493 163.216 138.623 163.364C138.761 163.511 138.961 163.645 139.221 163.767C139.489 163.879 139.901 164.035 140.456 164.235C141.071 164.46 141.552 164.659 141.899 164.833C142.254 165.006 142.57 165.266 142.848 165.613C143.134 165.951 143.277 166.393 143.277 166.939C143.277 167.753 142.978 168.399 142.38 168.876C141.782 169.344 140.971 169.578 139.949 169.578ZM144.716 169.474C144.673 169.474 144.634 169.461 144.599 169.435C144.573 169.4 144.56 169.361 144.56 169.318V160.53C144.56 160.486 144.573 160.452 144.599 160.426C144.634 160.391 144.673 160.374 144.716 160.374H146.237C146.28 160.374 146.315 160.391 146.341 160.426C146.376 160.452 146.393 160.486 146.393 160.53V169.318C146.393 169.361 146.376 169.4 146.341 169.435C146.315 169.461 146.28 169.474 146.237 169.474H144.716ZM151.173 169.578C150.497 169.578 149.903 169.448 149.392 169.188C148.881 168.919 148.486 168.546 148.209 168.07C147.932 167.593 147.793 167.043 147.793 166.419V163.416C147.793 162.792 147.932 162.241 148.209 161.765C148.486 161.288 148.881 160.92 149.392 160.66C149.903 160.4 150.497 160.27 151.173 160.27C151.84 160.27 152.425 160.395 152.928 160.647C153.439 160.889 153.834 161.24 154.111 161.7C154.397 162.15 154.54 162.675 154.54 163.273C154.54 163.351 154.488 163.398 154.384 163.416L152.863 163.507H152.837C152.75 163.507 152.707 163.459 152.707 163.364C152.707 162.904 152.564 162.536 152.278 162.259C152.001 161.981 151.632 161.843 151.173 161.843C150.705 161.843 150.328 161.981 150.042 162.259C149.765 162.536 149.626 162.904 149.626 163.364V166.497C149.626 166.947 149.765 167.311 150.042 167.589C150.328 167.866 150.705 168.005 151.173 168.005C151.632 168.005 152.001 167.866 152.278 167.589C152.564 167.311 152.707 166.947 152.707 166.497C152.707 166.401 152.759 166.354 152.863 166.354L154.384 166.419C154.427 166.419 154.462 166.432 154.488 166.458C154.523 166.484 154.54 166.514 154.54 166.549C154.54 167.147 154.397 167.675 154.111 168.135C153.834 168.594 153.439 168.949 152.928 169.201C152.425 169.452 151.84 169.578 151.173 169.578ZM159.121 169.617C158.445 169.617 157.847 169.478 157.327 169.201C156.816 168.923 156.417 168.538 156.131 168.044C155.845 167.541 155.702 166.965 155.702 166.315V163.533C155.702 162.891 155.845 162.324 156.131 161.83C156.417 161.336 156.816 160.954 157.327 160.686C157.847 160.408 158.445 160.27 159.121 160.27C159.806 160.27 160.404 160.408 160.915 160.686C161.435 160.954 161.838 161.336 162.124 161.83C162.41 162.324 162.553 162.891 162.553 163.533V166.315C162.553 166.965 162.41 167.541 162.124 168.044C161.838 168.546 161.435 168.936 160.915 169.214C160.404 169.482 159.806 169.617 159.121 169.617ZM159.121 168.044C159.598 168.044 159.984 167.892 160.278 167.589C160.573 167.285 160.72 166.882 160.72 166.38V163.52C160.72 163.017 160.573 162.614 160.278 162.311C159.992 161.999 159.607 161.843 159.121 161.843C158.645 161.843 158.259 161.999 157.964 162.311C157.678 162.614 157.535 163.017 157.535 163.52V166.38C157.535 166.882 157.678 167.285 157.964 167.589C158.259 167.892 158.645 168.044 159.121 168.044ZM164.114 169.474C164.071 169.474 164.032 169.461 163.997 169.435C163.971 169.4 163.958 169.361 163.958 169.318V160.53C163.958 160.486 163.971 160.452 163.997 160.426C164.032 160.391 164.071 160.374 164.114 160.374H165.635C165.679 160.374 165.713 160.391 165.739 160.426C165.774 160.452 165.791 160.486 165.791 160.53V167.836C165.791 167.879 165.813 167.901 165.856 167.901H170.107C170.151 167.901 170.185 167.918 170.211 167.953C170.246 167.979 170.263 168.013 170.263 168.057V169.318C170.263 169.361 170.246 169.4 170.211 169.435C170.185 169.461 170.151 169.474 170.107 169.474H164.114ZM174.533 169.617C173.857 169.617 173.259 169.478 172.739 169.201C172.228 168.923 171.829 168.538 171.543 168.044C171.257 167.541 171.114 166.965 171.114 166.315V163.533C171.114 162.891 171.257 162.324 171.543 161.83C171.829 161.336 172.228 160.954 172.739 160.686C173.259 160.408 173.857 160.27 174.533 160.27C175.218 160.27 175.816 160.408 176.327 160.686C176.847 160.954 177.25 161.336 177.536 161.83C177.822 162.324 177.965 162.891 177.965 163.533V166.315C177.965 166.965 177.822 167.541 177.536 168.044C177.25 168.546 176.847 168.936 176.327 169.214C175.816 169.482 175.218 169.617 174.533 169.617ZM174.533 168.044C175.01 168.044 175.396 167.892 175.69 167.589C175.985 167.285 176.132 166.882 176.132 166.38V163.52C176.132 163.017 175.985 162.614 175.69 162.311C175.404 161.999 175.019 161.843 174.533 161.843C174.057 161.843 173.671 161.999 173.376 162.311C173.09 162.614 172.947 163.017 172.947 163.52V166.38C172.947 166.882 173.09 167.285 173.376 167.589C173.671 167.892 174.057 168.044 174.533 168.044ZM182.569 169.578C181.901 169.578 181.312 169.443 180.801 169.175C180.289 168.906 179.891 168.533 179.605 168.057C179.327 167.571 179.189 167.012 179.189 166.38V163.468C179.189 162.835 179.327 162.276 179.605 161.791C179.891 161.305 180.289 160.933 180.801 160.673C181.312 160.404 181.901 160.27 182.569 160.27C183.227 160.27 183.808 160.4 184.311 160.66C184.822 160.92 185.216 161.275 185.494 161.726C185.78 162.168 185.923 162.662 185.923 163.208V163.299C185.923 163.342 185.905 163.381 185.871 163.416C185.845 163.442 185.81 163.455 185.767 163.455H184.246C184.202 163.455 184.163 163.442 184.129 163.416C184.103 163.381 184.09 163.342 184.09 163.299V163.26C184.09 162.861 183.951 162.527 183.674 162.259C183.396 161.981 183.028 161.843 182.569 161.843C182.101 161.843 181.724 161.99 181.438 162.285C181.16 162.571 181.022 162.948 181.022 163.416V166.432C181.022 166.9 181.173 167.281 181.477 167.576C181.78 167.862 182.166 168.005 182.634 168.005C183.084 168.005 183.444 167.888 183.713 167.654C183.981 167.411 184.116 167.077 184.116 166.653V166.068C184.116 166.024 184.094 166.003 184.051 166.003H182.595C182.551 166.003 182.512 165.99 182.478 165.964C182.452 165.929 182.439 165.89 182.439 165.847V164.651C182.439 164.607 182.452 164.573 182.478 164.547C182.512 164.512 182.551 164.495 182.595 164.495H185.767C185.81 164.495 185.845 164.512 185.871 164.547C185.905 164.573 185.923 164.607 185.923 164.651V166.367C185.923 167.025 185.784 167.597 185.507 168.083C185.229 168.568 184.835 168.941 184.324 169.201C183.821 169.452 183.236 169.578 182.569 169.578ZM187.487 169.474C187.443 169.474 187.404 169.461 187.37 169.435C187.344 169.4 187.331 169.361 187.331 169.318V160.53C187.331 160.486 187.344 160.452 187.37 160.426C187.404 160.391 187.443 160.374 187.487 160.374H189.008C189.051 160.374 189.086 160.391 189.112 160.426C189.146 160.452 189.164 160.486 189.164 160.53V169.318C189.164 169.361 189.146 169.4 189.112 169.435C189.086 169.461 189.051 169.474 189.008 169.474H187.487ZM187.526 159.568C187.465 159.568 187.426 159.55 187.409 159.516C187.391 159.481 187.396 159.438 187.422 159.386L188.111 158.073C188.145 157.995 188.21 157.956 188.306 157.956H189.619C189.679 157.956 189.718 157.977 189.736 158.021C189.762 158.055 189.757 158.099 189.723 158.151L188.8 159.464C188.756 159.533 188.696 159.568 188.618 159.568H187.526ZM196.531 169.474C196.444 169.474 196.388 169.43 196.362 169.344L195.972 168.07C195.954 168.035 195.933 168.018 195.907 168.018H192.709C192.683 168.018 192.661 168.035 192.644 168.07L192.267 169.344C192.241 169.43 192.184 169.474 192.098 169.474H190.447C190.395 169.474 190.356 169.461 190.33 169.435C190.304 169.4 190.299 169.352 190.317 169.292L193.125 160.504C193.151 160.417 193.207 160.374 193.294 160.374H195.335C195.421 160.374 195.478 160.417 195.504 160.504L198.312 169.292C198.32 169.309 198.325 169.331 198.325 169.357C198.325 169.435 198.277 169.474 198.182 169.474H196.531ZM193.112 166.523C193.103 166.575 193.12 166.601 193.164 166.601H195.452C195.504 166.601 195.521 166.575 195.504 166.523L194.334 162.662C194.325 162.627 194.312 162.614 194.295 162.623C194.277 162.623 194.264 162.636 194.256 162.662L193.112 166.523ZM136.205 185.578C135.529 185.578 134.936 185.448 134.424 185.188C133.913 184.919 133.519 184.546 133.241 184.07C132.964 183.593 132.825 183.043 132.825 182.419V179.416C132.825 178.792 132.964 178.241 133.241 177.765C133.519 177.288 133.913 176.92 134.424 176.66C134.936 176.4 135.529 176.27 136.205 176.27C136.873 176.27 137.458 176.395 137.96 176.647C138.472 176.889 138.866 177.24 139.143 177.7C139.429 178.15 139.572 178.675 139.572 179.273C139.572 179.351 139.52 179.398 139.416 179.416L137.895 179.507H137.869C137.783 179.507 137.739 179.459 137.739 179.364C137.739 178.904 137.596 178.536 137.31 178.259C137.033 177.981 136.665 177.843 136.205 177.843C135.737 177.843 135.36 177.981 135.074 178.259C134.797 178.536 134.658 178.904 134.658 179.364V182.497C134.658 182.947 134.797 183.311 135.074 183.589C135.36 183.866 135.737 184.005 136.205 184.005C136.665 184.005 137.033 183.866 137.31 183.589C137.596 183.311 137.739 182.947 137.739 182.497C137.739 182.401 137.791 182.354 137.895 182.354L139.416 182.419C139.46 182.419 139.494 182.432 139.52 182.458C139.555 182.484 139.572 182.514 139.572 182.549C139.572 183.147 139.429 183.675 139.143 184.135C138.866 184.594 138.472 184.949 137.96 185.201C137.458 185.452 136.873 185.578 136.205 185.578ZM144.153 185.617C143.477 185.617 142.879 185.478 142.359 185.201C141.848 184.923 141.449 184.538 141.163 184.044C140.877 183.541 140.734 182.965 140.734 182.315V179.533C140.734 178.891 140.877 178.324 141.163 177.83C141.449 177.336 141.848 176.954 142.359 176.686C142.879 176.408 143.477 176.27 144.153 176.27C144.838 176.27 145.436 176.408 145.947 176.686C146.467 176.954 146.87 177.336 147.156 177.83C147.442 178.324 147.585 178.891 147.585 179.533V182.315C147.585 182.965 147.442 183.541 147.156 184.044C146.87 184.546 146.467 184.936 145.947 185.214C145.436 185.482 144.838 185.617 144.153 185.617ZM144.153 184.044C144.63 184.044 145.016 183.892 145.31 183.589C145.605 183.285 145.752 182.882 145.752 182.38V179.52C145.752 179.017 145.605 178.614 145.31 178.311C145.024 177.999 144.639 177.843 144.153 177.843C143.677 177.843 143.291 177.999 142.996 178.311C142.71 178.614 142.567 179.017 142.567 179.52V182.38C142.567 182.882 142.71 183.285 142.996 183.589C143.291 183.892 143.677 184.044 144.153 184.044ZM152.189 185.578C151.521 185.578 150.932 185.443 150.421 185.175C149.909 184.906 149.511 184.533 149.225 184.057C148.947 183.571 148.809 183.012 148.809 182.38V179.468C148.809 178.835 148.947 178.276 149.225 177.791C149.511 177.305 149.909 176.933 150.421 176.673C150.932 176.404 151.521 176.27 152.189 176.27C152.847 176.27 153.428 176.4 153.931 176.66C154.442 176.92 154.836 177.275 155.114 177.726C155.4 178.168 155.543 178.662 155.543 179.208V179.299C155.543 179.342 155.525 179.381 155.491 179.416C155.465 179.442 155.43 179.455 155.387 179.455H153.866C153.822 179.455 153.783 179.442 153.749 179.416C153.723 179.381 153.71 179.342 153.71 179.299V179.26C153.71 178.861 153.571 178.527 153.294 178.259C153.016 177.981 152.648 177.843 152.189 177.843C151.721 177.843 151.344 177.99 151.058 178.285C150.78 178.571 150.642 178.948 150.642 179.416V182.432C150.642 182.9 150.793 183.281 151.097 183.576C151.4 183.862 151.786 184.005 152.254 184.005C152.704 184.005 153.064 183.888 153.333 183.654C153.601 183.411 153.736 183.077 153.736 182.653V182.068C153.736 182.024 153.714 182.003 153.671 182.003H152.215C152.171 182.003 152.132 181.99 152.098 181.964C152.072 181.929 152.059 181.89 152.059 181.847V180.651C152.059 180.607 152.072 180.573 152.098 180.547C152.132 180.512 152.171 180.495 152.215 180.495H155.387C155.43 180.495 155.465 180.512 155.491 180.547C155.525 180.573 155.543 180.607 155.543 180.651V182.367C155.543 183.025 155.404 183.597 155.127 184.083C154.849 184.568 154.455 184.941 153.944 185.201C153.441 185.452 152.856 185.578 152.189 185.578ZM162.177 176.53C162.177 176.486 162.19 176.452 162.216 176.426C162.25 176.391 162.289 176.374 162.333 176.374H163.854C163.897 176.374 163.932 176.391 163.958 176.426C163.992 176.452 164.01 176.486 164.01 176.53V185.318C164.01 185.361 163.992 185.4 163.958 185.435C163.932 185.461 163.897 185.474 163.854 185.474H162.385C162.298 185.474 162.237 185.439 162.203 185.37L158.836 179.806C158.818 179.78 158.801 179.771 158.784 179.78C158.766 179.78 158.758 179.797 158.758 179.832L158.784 185.318C158.784 185.361 158.766 185.4 158.732 185.435C158.706 185.461 158.671 185.474 158.628 185.474H157.107C157.063 185.474 157.024 185.461 156.99 185.435C156.964 185.4 156.951 185.361 156.951 185.318V176.53C156.951 176.486 156.964 176.452 156.99 176.426C157.024 176.391 157.063 176.374 157.107 176.374H158.576C158.662 176.374 158.723 176.408 158.758 176.478L162.112 182.016C162.129 182.042 162.146 182.055 162.164 182.055C162.181 182.046 162.19 182.024 162.19 181.99L162.177 176.53ZM165.752 185.474C165.709 185.474 165.67 185.461 165.635 185.435C165.609 185.4 165.596 185.361 165.596 185.318V176.53C165.596 176.486 165.609 176.452 165.635 176.426C165.67 176.391 165.709 176.374 165.752 176.374H167.273C167.316 176.374 167.351 176.391 167.377 176.426C167.412 176.452 167.429 176.486 167.429 176.53V185.318C167.429 185.361 167.412 185.4 167.377 185.435C167.351 185.461 167.316 185.474 167.273 185.474H165.752ZM175.29 176.374C175.334 176.374 175.368 176.391 175.394 176.426C175.429 176.452 175.446 176.486 175.446 176.53V177.804C175.446 177.847 175.429 177.886 175.394 177.921C175.368 177.947 175.334 177.96 175.29 177.96H172.963C172.92 177.96 172.898 177.981 172.898 178.025V185.318C172.898 185.361 172.881 185.4 172.846 185.435C172.82 185.461 172.786 185.474 172.742 185.474H171.221C171.178 185.474 171.139 185.461 171.104 185.435C171.078 185.4 171.065 185.361 171.065 185.318V178.025C171.065 177.981 171.044 177.96 171 177.96H168.738C168.695 177.96 168.656 177.947 168.621 177.921C168.595 177.886 168.582 177.847 168.582 177.804V176.53C168.582 176.486 168.595 176.452 168.621 176.426C168.656 176.391 168.695 176.374 168.738 176.374H175.29ZM176.772 185.474C176.728 185.474 176.689 185.461 176.655 185.435C176.629 185.4 176.616 185.361 176.616 185.318V176.53C176.616 176.486 176.629 176.452 176.655 176.426C176.689 176.391 176.728 176.374 176.772 176.374H178.293C178.336 176.374 178.371 176.391 178.397 176.426C178.431 176.452 178.449 176.486 178.449 176.53V185.318C178.449 185.361 178.431 185.4 178.397 185.435C178.371 185.461 178.336 185.474 178.293 185.474H176.772ZM182.449 185.474C182.362 185.474 182.306 185.43 182.28 185.344L179.602 176.556L179.589 176.504C179.589 176.417 179.636 176.374 179.732 176.374H181.37C181.465 176.374 181.526 176.417 181.552 176.504L183.281 182.848C183.289 182.874 183.302 182.887 183.32 182.887C183.337 182.887 183.35 182.874 183.359 182.848L185.062 176.504C185.088 176.417 185.148 176.374 185.244 176.374H186.843C186.895 176.374 186.934 176.391 186.96 176.426C186.986 176.46 186.99 176.504 186.973 176.556L184.256 185.344C184.23 185.43 184.173 185.474 184.087 185.474H182.449ZM192.595 185.474C192.508 185.474 192.452 185.43 192.426 185.344L192.036 184.07C192.019 184.035 191.997 184.018 191.971 184.018H188.773C188.747 184.018 188.725 184.035 188.708 184.07L188.331 185.344C188.305 185.43 188.249 185.474 188.162 185.474H186.511C186.459 185.474 186.42 185.461 186.394 185.435C186.368 185.4 186.364 185.352 186.381 185.292L189.189 176.504C189.215 176.417 189.271 176.374 189.358 176.374H191.399C191.486 176.374 191.542 176.417 191.568 176.504L194.376 185.292C194.385 185.309 194.389 185.331 194.389 185.357C194.389 185.435 194.341 185.474 194.246 185.474H192.595ZM189.176 182.523C189.167 182.575 189.185 182.601 189.228 182.601H191.516C191.568 182.601 191.585 182.575 191.568 182.523L190.398 178.662C190.389 178.627 190.376 178.614 190.359 178.623C190.342 178.623 190.329 178.636 190.32 178.662L189.176 182.523Z" fill="black"/>
</svg>
